<svg xmlns="http://www.w3.org/2000/svg" width="801" height="800"><path fill="#fff" d="M0 0h800v800H0Z"/><path fill="#edf2f9" d="m746.97 428.2-6.05-4.32-5.95-4.94-5.86-5.57-5.78-6.27-5.37-6.45-5.34-6.99-5.33-7.54-5.3-8.12-6.67-10.93-6.72-11.66-6.75-12.42-9.88-18.92-10.15-19.92-10.27-20.13-10.73-20.45-7.4-13.56-7.7-13.41-7.98-13.26-8.36-13.01-8.75-12.6-9.14-12.17-7.2-8.87-7.48-8.5-7.77-8.12-8.05-7.77-8.41-7.38-8.77-6.89-9.14-6.42-9.53-5.95-7.82-4.33-8.13-3.96-8.44-3.59-8.78-3.21-9.12-2.85-9.1-2.32-9.5-1.89-9.94-1.45-10.4-.98-10.88-.5-10.56.02-11.1.56-11.65 1.12-12.26 1.71-12.88 2.33-13.67 3.03-12.43 3.17-11.28 3.3-10.21 3.4-10.39 3.95-9.39 4.02-8.47 4.11-7.61 4.16-7.6 4.68-6.85 4.73-6.16 4.77-5.51 4.82-5.32 5.23-4.82 5.27-4.32 5.32-3.87 5.37-4.75 7.51-4.17 7.6-3.62 7.69-3.22 7.88-2.9 7.95-2.58 8.02-3.53 12.13-3.31 12.17-3.35 12.15-3.61 12.05-2.67 7.93-3.02 7.84-3.36 7.74-3.78 7.53-4.37 7.42-4.97 7.3-4.03 5.2-4.52 5.13-5.03 5.08-5.56 5.01-5.73 4.6-6.41 4.53-7.12 4.48-7.9 4.41-7.89 3.89-8.77 3.81-9.73 3.72-10.75 3.61-10.54 3.08-11.64 2.96-12.83 2.8-14.09 2.63-11.62 2.23-11.49 2.64-11.38 3.06-11.27 3.48L0 396.81V800h800V447.38l-10.05-1.97-9.5-2.42-8.99-2.87-6.63-2.55-6.28-2.84-5.95-3.12-5.63-3.41Z"/><path fill="#c6ddff" d="m762.69 652.43-11.85-4.37-11.99-4-12.14-3.6-12.3-3.22-12.47-2.83-15.65-3.05-15.82-2.57-15.99-2.1-16.17-1.63-21.6-1.53-21.74-.92-21.89-.31-21.89.2-21.84.58-21.78.96-32.56 1.91-31.94 2.23-62.16 4.45-21.25 1.16-21.26.66-14.18.1-14.17-.23-14.17-.57-12.2-.88-12.17-1.21-12.16-1.53-18.2-2.61-18.19-2.79-14.36-1.94-14.39-1.41-14.4-.87-14.45-.33-14.44.23-14.42.84-14.41 1.46-14.41 2.06-11.42 2.1-11.4 2.53-11.38 2.97-11.36 3.42-11.35 3.87-8.9 3.35-8.88 3.8-5.79 2.86-5.61 3.26-5.46 3.66-2.3 1.95-2.1 2.36-1.91 2.8-1.54 3.01L7.12 670l-.76 3.58-.27 3.64.28 3.79.88 4 1.62 4.49 1.89 3.9 2.15 3.37 2.51 3.12 2.73 2.74 2.97 2.39 3.2 2.11 3.39 1.87 3.61 1.65 5.83 2.21 5.89 1.83 5.96 1.45 9.06 1.62 9.09 1.04 12.36.76 12.36.26 24.73-.16 12.37.02 12.36.39 23.26 1.24 11.65.8 11.58 1.09 10.28 1.21 5.49.95 5.54 1.36 3.61 1.19 3.43 1.47 3.26 1.77 3.02 2.12 2.69 2.52 2.4 2.97 1.52 2.63 1.13 2.72.74 2.83.39 2.91.05 2.91-.28 2.92-.61 2.88-.89 2.75-1.18 2.64-1.46 2.49-1.7 2.25-1.93 2.02-3.62 3.01-3.77 2.65-3.94 2.32-6.15 3.09-6.27 2.76-12.42 5.37-4 1.92-4.49 2.34-4.42 2.68-4.22 3.15h589.2l-.63-4.78-1.02-4.77-2.54-9.45-1.2-4.71-.93-4.68-.43-4.72.13-4.36.67-4.05 1.16-3.95 1.54-3.73 1.92-3.53 3.42-4.98 3.92-4.62 4.25-4.32 4.32-4 3.84-3.7 4.16-4.69 2.63-3.38 2.47-3.66 2.32-3.94 2-4.09 1.58-4.23 1.19-4.38.65-4.47.03-4.51-.62-4.62-1.31-4.97-1.53-4.16-1.73-3.45-2.11-3.23-2.31-2.78-2.53-2.36-2.77-2.1-3-1.9-3.26-1.71-5.12-2.3-5.69-2.29Z"/><path fill="#97bff7" d="M193.72 651.79h386.3l1.76.25 1.51.63 1.32 1.02 1.02 1.31.63 1.51.25 1.77v8.62l-.25 1.76-.63 1.51-1.02 1.32-1.32 1.02-1.51.63-1.76.25h-386.3l-1.76-.25-1.51-.63-1.32-1.02-1.02-1.32-.63-1.51-.25-1.76v-8.62l.25-1.77.63-1.51 1.02-1.31 1.32-1.02 1.51-.63 1.76-.25Z"/><path fill="#8dbffc" d="m48.36 462.63.3 1.64.56 3.08.3 3.19-.24.97-.84 1.77-2.31 4.42-1.17 2.6-.96 2.81-.56 2.89.01 2.87.4 1.84.8 1.8 1.25 1.78 2.53 3.03 1.65 2.29 1.25 2.21.68 1.84.29 1.86-.05 1.93-.87 4.53-.74 3.37-.41 2.79-.04 1.79.25 1.73.55 1.7.83 1.59 1.33 1.78 1.96 2.01 1.89 1.92 1.96 2.33 3.69 5.09 3.19 5.13.69 2.6 1.57 6.63 1.73 9.04.7 4.91.48 4.88.17 4.78-.24 4.14.96.2 1.41-.01.73-.03-.07-4.07-.41-10.92-1.02-15.88-.81-9.05-1.1-9.86-1.38-9.98-1.72-10.08-2.09-9.93-2.46-9.34-1.95-6.09-2.1-5.52-2.25-4.99-2.64-4.79-2.78-3.97-2.9-3.25Z"/><path fill="#8dbffc" d="m70.94 580.19.32-4.75.98-12.63 1.65-18.03 2.34-20.98 1.44-10.87 1.6-10.61 1.82-10.34 1.92-9.17 2.24-8.57 2.24-6.5 1.85-4 1.74-2.61 1.62-1.59-.11.33v1.69l.34 4.42.48 4.6.31 2.53.56 2.56.73 2.54.68 2.54.46 2.64.28 3.59-.14 3.56-.58 3.55-.62 1.64-.89 1.46-1.16 1.31-1.1 1.72-.73 1.84-.37 2-.45 3.49.03 3.48.49 3.48.61 2.71.31 2.39-.11 2.39-.71 2.69-1.15 2.51-1.43 2.28-1.73 2.06-2.04 1.86-1.4 1.47-1.38 2.2-1.36 3.12-1.55 5.06-1.37 6.38-1.02 6.73-.79 7.33-.54 7.41-.3 7.25-4.01-.16Z"/><path fill="#8dbffc" d="m73.21 578.45-1.78-3.57-4.81-9.38-7.1-13.2-8.61-15.01-4.66-7.61-4.7-7.23-4.84-6.88-4.51-5.79-3.18-3.61-2.85-2.8-2.55-2.1.65 2.91.22 2.94-.22 2.95-.65 2.9-.6 2.5-.27 3.26.2 3.4.76 3.61.83 2.34 1.15 2.21 1.47 2.1 1.77 1.83 2.17 1.56 2.65 1.29 2.71 1.17 2.05 1.16 1.52 1.14 1.89 2.01 1.21 2 .85 2.16.62 2.22 1.37 4.55.76 1.39.97 1.11 1.17.88 2.03 1.02 2.32.86 4.73 1.79 2.18 1.28 1.9 1.8 1.66 2.26 1.65 2.68 2.85 5.44 1.99 4.4.75 1.8 2.28-1.74ZM68.53 586.89l2.06-4.06 5.59-10.67 8.23-15.02 4.78-8.34 5.21-8.75 5.41-8.66 5.45-8.23 5.61-7.82 5.24-6.6 3.68-4.11 3.3-3.18 2.96-2.39-.45 1.73-.36 2.02-.22 2.93.19 3.13.84 3.5.71 2.85.31 3.7-.24 3.88-.88 4.1-.96 2.66-1.33 2.52-1.71 2.4-2.05 2.08-2.52 1.77-3.07 1.47-3.15 1.33-2.38 1.33-1.76 1.29-1.56 1.52-1.19 1.52-.85 1.53-.98 2.45-.72 2.52-.7 2.56-.89 2.63-.89 1.57-1.11 1.27-1.37 1-2.35 1.17-2.69.97-2.76.93-2.73 1.11-1.72.91-1.58 1.16-1.44 1.43-1.92 2.58-1.91 3.05-3.31 6.19-2.31 5-.88 2.06-2.63-1.99Z"/><path fill="#013bff" d="M81.54 651.62H64.96l-2.49-.21-2.32-.58-2.17-.95-2-1.28-1.74-1.55-1.5-1.83-1.19-2.05-.85-2.23-.5-2.46-6.79-58.21h59.68l-6.79 58.21-.5 2.46-.85 2.23-1.19 2.05-1.5 1.83-1.74 1.55-2 1.28-2.17.95-2.31.58-2.5.21Z"/><path fill="#007aff" d="M44.05 576.98h58.4l1.05.21.84.57.57.85.21 1.04v3.56l-.21 1.05-.57.84-.84.57-1.05.21h-58.4l-1.05-.21-.84-.57-.57-.84-.22-1.05v-3.56l.22-1.04.57-.85.84-.57 1.05-.21Z"/><path fill="#192684" d="m103.71 430.29-1.99-.28-1.83-.79-1.48-1.18-1.13-1.51-.71-1.75-.24-1.88.27-1.97.53-1.36.77-1.21.99-1.04 1.19-.83 1.33-.59 1.41-.31 1.43-.04 1.43.26 1.83.79 1.48 1.18 1.13 1.51.71 1.75.24 1.88-.27 1.97-.52 1.36-.77 1.21-1 1.04-1.19.83-1.74.71-1.87.25Zm-.02-13.26-1.48.2-1.39.56-1.25.94-.91 1.17-.61 1.43-.21 1.6.18 1.47.57 1.39.9 1.21 1.16.92 1.47.65 1.55.22 1.47-.18 1.45-.58 1.24-.94.92-1.17.61-1.43.21-1.6-.18-1.47-.57-1.39-.9-1.21-1.16-.92-1.48-.65-1.58-.22h-.01Z"/><path fill="#ef4923" d="m286.65 164.88-1.84-.27-1.59-.66-1.37-1.07-1.07-1.38-.66-1.58-.27-1.84.27-1.85.66-1.58 1.07-1.38 1.37-1.07 1.59-.66 1.84-.26 1.85.26 1.58.66 1.38 1.07 1.07 1.38.66 1.58.26 1.85-.26 1.84-.66 1.58-1.07 1.38-1.38 1.07-1.58.66-1.85.27Zm0-11.47-1.26.18-1.09.46-.94.73-.74.95-.45 1.08-.18 1.27.18 1.26.45 1.09.74.94.94.74 1.09.45 1.26.18 1.27-.18 1.08-.45.95-.74.73-.94.46-1.09.18-1.26-.18-1.27-.46-1.08-.73-.95-.95-.73-1.08-.46-1.27-.18Z"/><path fill="#f3c04c" d="m281.99 127.56-1.85-.26-1.58-.66-1.38-1.07-1.07-1.38-.66-1.58-.26-1.85.26-1.84.66-1.59 1.07-1.37 1.38-1.07 1.58-.66 1.85-.27 1.84.27 1.59.66 1.37 1.07 1.07 1.38.67 1.58.26 1.84-.26 1.85-.67 1.58-1.07 1.38-1.37 1.07-1.59.66-1.84.26ZM313.79 129l-.42-.09-.33-.22-.23-.34-.09-.42v-4.7l.09-.41.23-.34.33-.23.42-.08.42.08.33.23.23.34.09.41v4.7l-.32.76-.75.31ZM313.79 137.23l-.42-.09-.33-.22-.23-.34-.09-.42v-4.7l.09-.42.23-.33.33-.23.42-.08.42.08.33.23.23.33.09.42v4.7l-.32.76-.75.31ZM320.39 130.76h-4.22l-.42-.08-.34-.23-.22-.33-.09-.42.31-.75.76-.32h4.22l.42.09.33.23.23.33.09.42-.32.75-.75.31ZM311.41 130.76h-4.22l-.42-.08-.33-.23-.23-.34-.09-.41.09-.42.23-.34.33-.22.42-.09h4.22l.42.09.34.22.22.34.09.42-.09.41-.22.34-.34.23-.42.08Z"/><path fill="#499d75" d="m546.81 695.97-1.85-.31-1.58-.7-1.36-1.11-1.04-1.41-.63-1.61-.22-1.87.22-1.86.63-1.61 1.04-1.42 1.36-1.11 1.58-.7 1.85-.31 1.86.31 1.57.7 1.37 1.11 1.04 1.42.63 1.61.22 1.86-.22 1.87-.63 1.61-1.04 1.41-1.37 1.11-1.57.7-1.86.31Z"/><path fill="#fff" d="m542.22 657.49-1.85-.31-1.58-.7-1.36-1.11-1.04-1.42-.63-1.61-.22-1.86.22-1.87.63-1.61 1.04-1.41 1.36-1.11 1.58-.7 1.85-.31 1.86.31 1.57.7 1.37 1.11 1.04 1.41.63 1.61.22 1.87-.22 1.86-.63 1.61-1.04 1.42-1.37 1.11-1.57.7-1.86.31Zm0-11.82-1.27.21-1.08.48-.94.76-.71.97-.43 1.11-.16 1.28.16 1.28.43 1.1.72.97.93.76 1.08.49 1.27.21 1.28-.21 1.08-.49.93-.76.72-.97.43-1.1.15-1.28-.15-1.28-.43-1.11-.72-.97-.93-.76-1.08-.48-1.28-.21ZM573.51 658.97l-.42-.1-.33-.23-.22-.35-.08-.42v-4.85l.08-.42.22-.35.33-.23.42-.1.42.1.34.23.22.35.07.42v4.85l-.07.42-.23.35-.33.23-.42.1ZM573.51 667.46l-.42-.1-.33-.24-.22-.34-.08-.42v-4.85l.08-.43.22-.34.33-.24.42-.09.42.09.33.24.23.34.07.43v4.85l-.07.42-.23.34-.33.24-.42.1ZM580.01 660.79h-4.16l-.42-.1-.33-.23-.22-.35-.08-.42.07-.42.23-.35.34-.24.41-.09h4.16l.42.09.33.24.22.34.08.43-.08.42-.22.35-.33.23-.42.1ZM571.17 660.79h-4.15l-.42-.1-.33-.23-.22-.35-.08-.42.08-.43.22-.34.33-.24.42-.09h4.15l.42.09.34.24.22.34.07.43-.07.42-.22.35-.34.23-.42.1Z"/><path fill="#f8b91e" d="m752.45 327.36-2.35-.28-2.11-.72-1.92-1.17-1.62-1.55-1.24-1.85-.87-2.2-.32-1.89.01-1.81.33-1.76.63-1.69.88-1.52 1.15-1.39 1.37-1.16 1.56-.91 1.8-.67 1.89-.32 1.81.02 1.77.33 1.68.62 1.52.88 1.39 1.15 1.16 1.37.91 1.57.67 1.79.32 1.89-.01 1.82-.34 1.76-.62 1.68-.88 1.53-1.15 1.38-1.37 1.17-1.56.91-1.8.66-1.34.27-1.35.09Zm-.01-18.92-2.18.29-2.1.88-1.72 1.33-1.31 1.72-.84 2-.3 2.15.28 2.27.88 2.11 1.34 1.71 1.71 1.32 2 .84 2.15.3 2.27-.28 2.11-.89 1.72-1.33 1.31-1.72.84-1.99.3-2.16-.28-2.27-.71-1.77-1-1.5-1.32-1.26-1.55-.95-1.7-.58-1.9-.22Z"/><path fill="#499d75" d="m746.45 432.82-1.68-.23-1.56-.65-1.37-1.05-.99-1.3-.66-1.59-.22-1.71.22-1.62.66-1.59 1.05-1.36 1.3-1 1.59-.66 1.7-.22 1.63.22 1.59.66 1.36 1.05.99 1.3.66 1.59.22 1.71-.21 1.62-.66 1.59-1.05 1.36-1.3 1-1.59.66-1.68.22Z"/><path fill="#edf2f9" d="M735.98 81.88v-.32l-.22-3.97-.59-3.79-.95-3.63-1.32-3.5-2.29-4.43-2.79-4.04-3.32-3.69-3.76-3.23-4.14-2.73-4.56-2.23-3.57-1.29-3.72-.93-3.89-.58-4.07-.21-4.8.27-4.62.82-4.46 1.37-4.27 1.88-3.98 2.34-3.71 2.83-3.35 3.25-2.95 3.64-2.56 4.07-2.56-1.42-2.71-1.03-2.84-.63-2.92-.2-3.57.32-3.26.86-3.02 1.38-2.74 1.88-2.33 2.23-1.93 2.63-1.44 2.91-.89 3.14-.33 3.42v.19l-3.65 1.87-3.28 2.25-2.95 2.63-2.59 3-2.16 3.25-1.77 3.54-1.29 3.74-.81 3.89-.32 4.09.31 4.28.86 4.03 1.39 3.83 1.9 3.61 2.32 3.29 2.76 3.01 3.13 2.63 3.44 2.22 3.79 1.83 3.98 1.33 4.22.82 4.47.3 4.21-.26h76.69l1.31-.14 2.28-.13 2.26-.37v-.14l3.86-.7 3.62-1.06 3.41-1.43 3.22-1.8 2.92-2.09 2.62-2.37 2.32-2.66 1.94-2.87 1.57-3.09 1.16-3.27.71-3.41.25-3.59-.22-3.31-.59-3.14-.96-3-1.33-2.88-2.28-3.57-2.78-3.2-3.32-2.87-3.68-2.38-4.05-1.89-4.46-1.4Z"/><path fill="#98bef7" d="M113.73 207.59v-.21l-.24-3.49-.69-3.28-1.11-3.11-1.52-2.94-1.85-2.69-2.2-2.44-2.5-2.15-2.75-1.81-3.02-1.48-3.19-1.09-3.36-.66-3.57-.24-3.19.18-3.06.54-2.97.9-2.83 1.25-2.64 1.56-2.46 1.88-2.22 2.15-1.96 2.42-1.7 2.7-2.31-1.21-2.42-.72-2.59-.25-2.33.17-2.13.54-1.99.9-1.8 1.23-1.54 1.48-1.3 1.76-.98 1.95-.62 2.11-.26 2.32v.12l-2.42 1.24-2.18 1.49-1.95 1.75-1.72 1.99-1.44 2.16-1.17 2.35-.86 2.48-.54 2.59-.21 2.71.22 2.86.57 2.67.91 2.52 1.26 2.39 2.13 2.89 2.58 2.47 3.04 2.06 2.48 1.2 2.63.87 2.8.55 3 .21 2.79-.18h50.89l.87-.08 3.01-.34v-.09l3.41-.68 3.1-1.1 2.84-1.52 2.58-1.93 2.16-2.2 1.78-2.51 1.34-2.77.81-2.93.3-3.17-.25-2.9-.68-2.72-1.13-2.56-1.51-2.37-1.84-2.12-2.2-1.91-2.45-1.58-2.69-1.25-2.96-.93Z"/><path fill="#8dbffc" d="m240.56 731.39 35.96-48.16h222.79l-31.78 48.16Z"/><path fill="#fff" d="m285.13 695.97-.44-.12-.37-.53.1-.63 7.45-11.9.53-.37.63.1.37.53-.1.63-7.45 11.9-.31.29-.41.1ZM284.11 717.33l-.45-.13-.37-.52.11-.64 20.81-33.26.52-.37.64.11.37.52-.11.64-20.81 33.26-.31.28-.4.11ZM312.26 695.97l-.45-.12-.37-.53.11-.63 7.45-11.9.52-.37.63.1.37.53-.1.63-7.45 11.9-.31.29-.4.1ZM315.24 717.33l-.44-.13-.37-.52.1-.64 20.82-33.26.52-.37.64.11.37.52-.11.63-20.81 33.26-.31.29-.41.11ZM343.39 695.97l-.44-.12-.37-.53.1-.63 7.45-11.9.52-.37.64.1.37.53-.11.63-7.44 11.9-.31.29-.41.1ZM347.12 717.33l-.45-.13-.37-.52.11-.64 20.81-33.26.53-.37.63.11.37.52-.1.64-20.82 33.26-.31.28-.4.11ZM375.27 695.97l-.45-.12-.37-.53.11-.63 7.45-11.9.52-.37.63.1.37.53-.1.63-7.45 11.9-.31.29-.4.1ZM378.25 717.33l-.44-.13-.37-.52.1-.64 20.82-33.26.52-.37.64.11.37.52-.11.64-20.81 33.26-.31.29-.41.1ZM406.4 695.97l-.45-.12-.37-.53.11-.63 7.45-11.9.52-.37.63.1.38.53-.11.63-7.45 11.9-.3.29-.41.1ZM409.39 717.33l-.44-.13-.38-.52.11-.64 20.82-33.26.52-.37.63.11.38.52-.11.64-20.82 33.26-.3.28-.41.11ZM437.54 695.97l-.44-.12-.38-.53.11-.63 7.45-11.9.52-.37.64.1.37.53-.11.63-7.45 11.9-.3.29-.41.1ZM440.53 717.33l-.45-.13-.37-.52.11-.64 20.81-33.26.53-.37.63.11.37.52-.1.64-20.82 33.26-.3.28-.41.11ZM468.68 695.97l-.45-.12-.37-.53.11-.63 7.45-11.9.52-.37.63.1.38.53-.11.63-7.45 11.9-.3.29-.41.1Z"/><path fill="#97bff7" d="m555.97 725.22 127.69-25.36 17.69 41.66-4.36.85-11.69 2.33-16.95 3.46-20.13 4.22-21.21 4.64-20.22 4.71-17.16 4.42-7.14 2.11-4.86 1.67-3.01 1.31-1.35.89-.42.59-.79-2.34-2.35-6.67-3.31-9.3-3.64-10.2-3.36-9.41-2.47-6.9-.96-2.68Z"/><path fill="#ec6639" d="m557.35 719.79 124.82-28.08 16.01 43.46-122.31 34.29Z"/><path fill="#fff" d="m574.75 731.98 6.93-1.9 2.86 8.04 7.56-2.08-2.85-8.03 6.96-1.91 8.15 22.95-6.96 1.91-3.29-9.28-7.57 2.07 3.3 9.29-6.93 1.9ZM599.23 725.27l21.06-5.78 2.01 5.67-7.06 1.94 6.14 17.29-6.93 1.9-6.14-17.29-7.06 1.94ZM623.35 718.66l9.11-2.5 8.47 13-1.47-14.93 9.1-2.5 8.16 22.96-5.68 1.55-6.22-17.5 1.85 18.7-5.13 1.41-10.59-16.31 6.22 17.51-5.67 1.55ZM652.98 710.53l6.93-1.9 6.15 17.3 10.81-2.97 2.01 5.66-17.74 4.86Z"/><path fill="#192684" d="M149.45 246.07h482.58l1.85.17 1.7.46 1.58.75 1.42 1.01 1.21 1.21 1.01 1.42.75 1.58.46 1.69.17 1.86v340.22l-.17 1.85-.46 1.7-.75 1.58-1.01 1.42-1.21 1.21-1.42 1.01-1.58.75-1.7.46-1.85.17H149.45l-1.85-.17-1.7-.46-1.57-.75-1.42-1.01-1.21-1.21-1.01-1.42-.75-1.58-.46-1.7-.18-1.85V256.22l.18-1.86.46-1.69.75-1.58 1.01-1.42 1.21-1.21 1.42-1.01 1.57-.75 1.7-.46 1.85-.17Z"/><path fill="#edf2f9" d="M160.48 259.81h461.4l1.49.22 1.28.53 1.11.86.86 1.11.53 1.27.21 1.49v285.34l-.21 1.49-.53 1.27-.86 1.11-1.11.87-1.28.53-1.49.21h-461.4l-1.48-.21-1.28-.53-1.11-.87-.86-1.11-.53-1.27-.21-1.49V265.29l.21-1.49.53-1.27.86-1.11 1.11-.86 1.28-.53 1.48-.22Z"/><path fill="#cadcfc" d="M231.73 396.51h73.71l1.57.32 1.26.86.85 1.26.32 1.56v135.17l-.32 1.57-.85 1.26-1.26.85-1.57.32h-73.71l-1.57-.32-1.26-.85-.85-1.26-.32-1.57V400.51l.32-1.56.85-1.26 1.26-.86 1.57-.32ZM231.73 297.34h317.45l1.57.32 1.26.85.85 1.26.32 1.57v63.24l-.32 1.57-.85 1.26-1.26.85-1.57.32H231.73l-1.57-.32-1.26-.85-.85-1.26-.32-1.57v-63.24l.32-1.57.85-1.26 1.26-.85 1.57-.32Z"/><g fill="#192684"><path d="M346.64 571.79h92.04v81.67h-92.04Z"/><path d="M485.97 665.51H295.52l.43-1.19.71-1.2 1.58-1.86 2.13-1.85 3.56-2.33 4.27-2.15 6.31-2.41 4.52-1.38 5.61-1.4 6.87-1.41 6.9-1.12 8.25-1.03 9.78-.91 9.79-.62 11.4-.4 13.19-.16 13.18.16 11.4.4 9.79.62 9.77.91 8.24 1.03 6.9 1.12 6.85 1.41 5.6 1.4 4.52 1.38 6.29 2.41 4.26 2.15 3.54 2.33 2.11 1.85 1.57 1.86.71 1.2.42 1.19Z"/></g><path fill="#fff" d="M158.05 259.81h466.24l1.2.25.97.66.66.96.24 1.21v18.71H154.75v-18.48l.26-1.3.7-1.04 1.04-.7 1.3-.27Z"/><path fill="#3478f6" d="m179.79 270.71-.23 1.61-.58 1.39-.93 1.2-1.21.94-1.38.58-1.62.22-1.61-.22-1.39-.58-1.2-.94-.94-1.2-.58-1.39-.23-1.61.23-1.62.58-1.38.94-1.21 1.2-.93 1.39-.58 1.61-.23 1.62.23 1.38.58 1.21.93.93 1.21.58 1.38.23 1.62Z"/><path fill="#98bef7" d="m203.57 270.71-.23 1.61-.58 1.39-.93 1.2-1.21.94-1.38.58-1.62.22-1.61-.22-1.38-.58-1.21-.94-.93-1.2-.58-1.39-.23-1.61.23-1.62.58-1.38.93-1.21 1.21-.93 1.38-.58 1.61-.23 1.62.23 1.38.58 1.21.93.93 1.21.58 1.38.23 1.62Z"/><path fill="#cadcfc" d="m227.36 270.71-.23 1.61-.58 1.39-.94 1.2-1.2.94-1.39.58-1.61.22-1.61-.22-1.39-.58-1.2-.94-.94-1.2-.58-1.39-.23-1.61.23-1.62.58-1.38.94-1.21 1.2-.93 1.39-.58 1.61-.23 1.61.23 1.39.58 1.2.93.94 1.21.58 1.38.23 1.62Z"/><path fill="#3478f6" d="M349.75 399.31h199.43l1.57.32 1.26.85.85 1.26.32 1.57v132.37l-.32 1.57-.85 1.26-1.26.85-1.57.32H349.75l-1.56-.32-1.26-.85-.86-1.26-.32-1.57V403.31l.32-1.57.86-1.26 1.26-.85 1.56-.32Z"/><g fill="#f3c04c"><path d="m436.15 490.52-38.56-16v-10.06l38.56-16.03v12.05l-23.43 9.03 23.43 9.04ZM452.27 443.79h7.05l-12.49 51.41h-6.98ZM462.78 478.55l23.43-9.04-23.43-9.03v-12.05l38.56 16.03v10.07l-38.56 16Z"/></g><path fill="#97bff7" d="m646.27 683.3-.27.59-.96.68-2.17.79-3.61.78-5.32.69-5.78.41-6.79.15-6.79-.15-5.77-.41-5.32-.69-3.61-.78-2.17-.79-.96-.68-.27-.59.27-.6.96-.68 2.17-.79 3.61-.78 5.32-.69 5.77-.4 6.79-.16 6.79.16 5.78.4 5.32.69 3.61.78 2.17.79.96.68.27.6ZM752.37 680.08l-.23.46-.82.54-1.93.63-3.18.61-4.68.54-5.08.32-5.96.12-5.97-.12-5.08-.32-4.68-.54-3.17-.61-1.93-.63-.83-.54-.23-.46.23-.45.83-.54 1.93-.63 3.17-.61 4.68-.54 5.08-.32 5.97-.12 5.96.12 5.08.32 4.68.54 3.18.61 1.93.63.82.54.23.45Z"/><path fill="#3478f6" d="m685.52 513.96 20.25-.99 1.79 5.51 1.28 5.57.81 5.67.32 5.77-.12 6.71-.26 3.36-.29 2.33-.21 3.67.25 1.98 1 3.54 3.32 8.85 4.49 10.83 4.77 11.46 4.14 10.73 1.62 4.87 1.01 3.78 1.96 8.25 2.58 10.07 2.8 10.51 2.6 9.57 2 7.27.18 1.67-.35 1.59-.82 1.39-1.28 1.1-1.68.66-1.74.04-1.66-.54-1.42-1.11-7.51-8.7-4.79-5.83-5.61-7.12-5.67-7.55-5.9-8.36-5.68-8.67-5.33-8.95-3.3-6.12-2.9-6.01-2.52-5.91-2.16-6.04-1.55-5.72-1-5.43-2.47-18.74-1.59-11.62-.91-6.21-.4-2.48-.1-.45 12.05-14.2Z"/><path fill="#192684" d="m729.87 654.66.4.91.67 2.13.2 1.26-.02 1.2-.33 1.08-.75.81-3.37 2.38-4.88 3.8-2.44 2.15-1.97 2.01-1.15 1.44-.62 1.12-.23.9.02 1.66.3.84.66.44 1.53.02 5.4-1.22 2.99-.89 3.77-1.38 3.84-1.63 3.78-1.84 3.53-2.03 2.68-1.93 1.52-1.46.79-1.22.27-1.06-.23-1.84-.7-2.42-2.04-4.95-2.04-4.1-.93-1.71-10.65 5.53Z"/><path fill="#2253f6" d="m689.01 547.39.96 1.48.63 1.62.27 1.72-.09 1.76-1.06 8.01-.48 5.1-.35 5.93-.1 6.11.24 6.3.67 6.25 1.17 5.88 1.14 3.78 1.43 3.38 1.71 3.02-1.89-2.89-1.91-3.18-2.63-4.8-2.63-5.32-2.77-6.45-2.42-6.84-2-7.45-.96-5.1-.54-5.17-.14-5.25.37-5.36.64-3.31.71-1.92.74-1.2.74-.68.9-.41.94-.09 1.01.24 1.48.76 1.54 1.21 2.68 2.87Z"/><path fill="#fac896" d="m645.74 418.81 12.61 22.51 15.27-11.39-16.97-22.36ZM629.56 471.5l-1.33-1.68-1.49-1.39-1.69-1.13-1.84-.87-1.92-.56-2.01-.27-2.03.04-2.01.36-2.03.7-10.2 4.43-11.57 4.87-11.44 4.56-9.77 3.5-4.05 1.18-2.53.5-5.38.58-3.36.48-3.67.68-3.62.91-3.3 1.17-2.07 1.01-1.67 1.12-1.32 1.25-.98 1.46-.48 1.65.01 1.91.79 1.64.92 1.22 1.23.9 1.9.68 2.31.34 3.6.12 4.12-.14 5.91-.39 12.78-1.31 12.71-1.73 12.63-2.13 12.56-2.55 12.51-2.97 2.03-.69 1.83-.97 1.67-1.26 1.45-1.5 1.18-1.7.94-1.93.6-2.06.27-2.06-.06-2.08-.39-2.06-.71-1.95-1.03-1.88Z"/><path fill="#e52822" d="m632.38 493.2-10.2 30.68-.05 1.08.52.95 3.02 2.63 2.23 1.54 3.01 1.69 3.35 1.45 4.13 1.24 2.9.58 3.24.35 3.63.1.87-.22.69-.58 2.28-3.22 2.79-4.11 2.14-3.2.31-.78-.05-.84-5.32-19.64-.04-.17-3.11-17.25-.29-.74-.57-.57-.74-.3-.8.01-11.66 2.57-.58.22-.46.38-.34.49-.17.59-.65 4.71-.08.36Z"/><path fill="#ed5858" d="m629.73 516.22-1.43-1.43-.48-.2-.48.2-.2.48.2.48 1.43 1.43.48.2.48-.2.2-.48-.2-.48ZM628.77 529.27l.48.2.48-.2.2-.48-.2-.48-1.43-1.43-.48-.2-.48.2-.2.48.2.48 1.43 1.43ZM635.39 497.75l-.48-.19-.48.19-1.43 1.43-.2.49.2.48.48.19.48-.19 1.43-1.43.2-.48-.2-.49ZM635.39 491.71l-.48-.2-.48.2-1.43 1.43-.2.48.2.48.48.2.48-.2 1.43-1.43.2-.48-.2-.48ZM629.73 506.19l.2-.48-.2-.48-1.01-1.01-.48 1.44.53.53.48.2.48-.2ZM630.26 510.17l-1.43-1.43-.48-.2-.49.2-.19.48.19.48 1.43 1.43.48.2.49-.2.19-.48-.19-.48ZM628.3 520.84l-.48-.2-.48.2-.2.48.2.48 1.43 1.43.48.19.48-.19.2-.48-.2-.49-1.43-1.42ZM633.11 488.13l-.01.1.33-.17 1.43-1.43.16-.26-.36.08-.57.22-.47.38-.33.49-.18.59ZM632.47 511.13l.48.2.48-.2 1.43-1.43.2-.48-.2-.48-.48-.2-.48.2-1.43 1.43-.2.48.2.48ZM635.39 503.8l-.48-.2-.48.2-1.43 1.43-.2.48.2.48.48.2.48-.2 1.43-1.43.2-.48-.2-.48ZM635.39 520.84l-.48-.2-.48.2-1.43 1.42-.2.49.2.48.48.19.48-.19 1.43-1.43.2-.48-.2-.48ZM655.02 514.79l-.48-.2-.48.2-1.43 1.43-.2.48.2.48.48.2.48-.2 1.43-1.43.18-.57-.05-.2-.13-.19ZM634.43 526.88l-1.43 1.43-.2.48.2.48.48.2.48-.2 1.43-1.43.2-.48-.2-.48-.48-.2-.48.2ZM635.39 514.79l-.48-.2-.48.2-1.43 1.43-.2.48.2.48.48.2.48-.2 1.43-1.43.2-.48-.2-.48ZM634.86 531.82l-.48-.2-.48.2-.89.89 1.38.55.47-.48.2-.48-.2-.48ZM648.4 529.27l.48.2.48-.2.2-.48-.2-.48-1.43-1.43-.48-.2-.48.2-.2.48.2.48 1.43 1.43ZM653.59 523.23l1.43-1.43.2-.48-.2-.48-.48-.2-.48.2-1.43 1.42-.2.49.2.48.48.19.48-.19ZM649.89 510.17l-1.43-1.43-.48-.2-.48.2-.2.48.2.48 1.42 1.43.48.2.49-.2.19-.48-.19-.48ZM648.46 485.66l-.48-.2-.48.2-.2.48.2.48 1.42 1.44.3.16-.4-2.19-.36-.37ZM655.02 526.88l-.48-.2-.48.2-1.43 1.43-.2.48.2.48.39.19.42-.09 1.63-2.41-.05-.08ZM653.06 511.13l.82-.81-.41-1.52-1.37 1.37-.2.48.2.48.48.2.48-.2ZM652.63 506.19l.16.11-.25-.94-.1.43.19.4ZM648.4 494.1l.48.2.48-.2.2-.48-.2-.48-1.43-1.43-.48-.2-.48.2-.2.48.2.48 1.43 1.43ZM646.97 498.72l1.43 1.43.48.19.48-.19.2-.48-.2-.49-1.43-1.43-.48-.19-.48.19-.2.49.2.48ZM649.89 533.25l-1.43-1.43-.48-.2-.48.2-.2.48.2.48 1.42 1.44.48.19.49-.19.19-.49-.19-.48ZM646.97 521.8l1.43 1.43.48.2.48-.2.2-.48-.2-.48-1.43-1.43-.48-.2-.48.2-.2.48.2.48ZM646.97 504.76l1.43 1.43.48.2.48-.2.2-.48-.2-.48-1.43-1.43-.48-.2-.48.2-.2.48.2.48ZM646.97 515.75l1.43 1.43.48.2.48-.2.2-.48-.2-.48-1.43-1.43-.48-.2-.48.2-.2.48.2.48Z"/><path fill="#3478f6" d="m649.61 514.54 43.25-.7.83 2.08.73 2.26.83 3.46.59 3.84.27 4.8-.11 3.28-.41 3.59-.77 3.93-1.1 3.83-1.6 4.07-2.16 4.33-2.53 4.1-3.26 4.3-4.06 4.51-4.5 5.61-2.26 3.13-2.51 4.07-2.39 4.62-2.75 6.39-2.6 7.22-3 9.83-2.88 10.93-3.3 14.37-4.41 14.24-3.24 9.61-2.98 8.13-1.72 4.28-.81 1.35-1.13 1.02-1.38.67-1.55.25-1.44-.17-1.27-.51-1.16-.87-.88-1.15-.52-1.27-.19-1.43.09-11.66.24-15.93.45-18.14.75-18.32 1.11-16.43.74-7.17.79-5.34 2.91-17.54 2.87-16.61 1.68-7.69 1.85-6.6 1.52-4.2 1.63-3.49 1.74-2.88Z"/><path fill="#2253f6" d="m662.53 512.1 5.55 18.74.66 1.51.93 1.23 1.2.98 1.39.69 1.5.34 1.65-.02 7.25-1.17 8.36-1.78 4.18-1.15 3.82-1.29 3.52-1.55 2.67-1.61 1.49-1.3.94-1.3.5-1.32-.38-1.87-.93-4.13-1.23-4.32-.71-1.73-.51-.68-.79-.14-2.84-.07-7.89.22-9.97.48-9.85.57-7.52.47-2.99.2Z"/><path fill="#b01f1a" d="m632.92 491.94.58 2.09 1.75 5.21 1.29 3.22 1.65 3.55 1.91 3.48 2.2 3.27 1.67 2.02 1.77 1.71 1.87 1.42.77-1.26 1.91-3.18 2.31-3.85 1.94-3.25.81-1.36-16.2-22.1-6.23 9.03Z"/><path fill="#fff" d="m639.21 484.62 1.42 6.71 2.16 8.69 1.33 4.43 1.37 3.87 1.59 3.46 1.42 2.1 1.03.69 1.22.19 4.43-.05 6.4.02 6.22.07.97-.15.8-.41.69-.7.42-.88.12-.9-.18-.96-12.13-33.21-.62-1.01-.97-.69-1.15-.26-1.17.22-13.56 5.44-.88.55-.63.79-.32.95.02 1.04Z"/><path fill="#dfccc3" d="m639.62 486.68.65 3.05 1.6-.34 3.63-.56 2.08-.15 1.87.04 1.65.36.9.65.56 1.06 1.04 2.46 2.34 6.32 2.47 7.05 1.94 5.74.79 2.37h5.58l-7.1-31.81-14.54 1.01-5.46 2.75Z"/><path fill="#f39c55" d="m647.29 421.71 4.74 8.24 6.95-6.7.68-1.11-.01-1.07-.54-.98-.98-.77-1.25-.36-1.48.16-8.11 2.59Z"/><path fill="#f97700" d="m638.94 392.53-.85-.94-1.04-.69-1.17-.41-1.27-.11-1.26.21-1.13.51-.98.76-.78 1.01-1.22 2.51-.76 2.83-.14 1.94.27 2.03.73 2.14.99 1.55.96.8.96.27 1.05-.11 1.11-.43 1.21-.83 1.64-1.55 1.55-1.86 2.39-3.47.93-1.6-3.19-4.56Z"/><path fill="#fac896" d="m662.53 409.63-.25 2.94-.66 2.69-1.07 2.48-1.46 2.28-1.74 1.91-2.02 1.58-2.27 1.2-2.43.73-2.65.27-2.64-.27-2.43-.73-2.27-1.2-2.03-1.58-1.73-1.91-1.46-2.28-1.07-2.48-.67-2.69-.25-2.94.25-2.95.67-2.69 1.07-2.48 1.46-2.27 1.73-1.92 2.03-1.58 2.27-1.19 2.43-.73 2.64-.28 2.65.28 2.43.73 2.27 1.19 2.02 1.58 1.74 1.92 1.46 2.27 1.07 2.48.66 2.69.25 2.95Z"/><path fill="#f39c55" d="m650.59 403.07-6.4-2.89-3.2-1.05-2.78-.46-3.66 1.42-.06 1.04-.08 2.73.91 1.34 1.2 1.4 1.39 1.25 1.63 1 1.82.6 2.11.1 6.1-.3 6.1.31.19-.94-.15-.95-.79-1.44-.8-.88-1.37-1.04-2.16-1.24Z"/><path fill="#f97700" d="m632.92 400-.14-2.19.34-2.23.87-2.32 1.92-3.31 2.55-3.21 2.9-2.94 2.87-2.47 2.04-1.34 1.95-.86 1.9-.42 2.98-.16 3.23.22 3.33.3 3.82.1 2.57-.16 2.89-.52 3.26-.93 3.53-1.51 2.55-1.58 2.17-1.82 1.73-1.85 3.08-3.85 1.65-1.84 2-1.8 2.36-1.56 3.24-1.47 2.95-.89 2.67-.46 2.42-.1 3.6.34 3.41.77 6.8 2.01 3.53.83 3.86.46h2.61l2.92-.34 3.26-.74 4.05-1.48 3.29-1.72 2.97-2.01 2.47-2 4.31-3.78 2.03-1.53 1.94-1.02 1.35-.4 1.45-.1 1.6.21 1.83.68 1.67 1.02 1.53 1.39 1.96 2.52 1.65 3.01 1.3 3.25.97 3.31.67 3.32.36 2.87.08 3.72-.32 3.72-.71 3.72-1.06 3.64-1.37 3.43-1.66 3.23-1.97 3.04-2.14 2.62-2.33 2.24-2.59 1.88-2.66 1.3-2.76.78-2.3.17-2.04-.17-1.84-.5-2.65-1.13-2.48-1.35-2.46-1.33-2.51-1-1.72-.38-1.89-.02-2.11.37-1.69.64-1.41.83-1.17 1-1.52 1.81-1.35 2.16-2.66 4.9-1.58 2.57-2.04 2.7-2.45 2.52-3.3 2.55-2.76 1.64-2.38 1.17-3.15 1.27-3.4.96-3.72.54h-2.52l-2.5-.39-2.51-.79-2.11-1.11-1.83-1.3-1.58-1.5-2.09-2.48-1.71-2.41-1.58-2.33-1.33-1.69-.97-.89-.94-.41-.95-.02-.99.49-.75.96-1.18 2.82-.67 1.63-.93 1.73-1.23 1.58-1.79 1.47-2.25 1.13-2.41.64-2.43.2-2.09-.24-1.3-.43-.92-.58-.64-.71-.35-1.18.14-1.38.48-1.42.67-1.47 1.17-2.69.18-1.14-.31-.78-.87-.54-1.49-.3-3.76-.24-2.09-.24-2.11-.51-2.43-1.11-2.4-1.57-2.19-1.8-1.68-1.64-1.33-1.59-.38-.71Z"/><path fill="#192684" d="m631.22 663.91-.04 1.15-.37 2.58-.41 1.42-.6 1.25-.86.95-1.13.47-3.46.5-5.32.91-5.81 1.29-2.75.81-2.18.83-1.82 1.02-.86.93-.73 1.63-.08.97.23.48.61.5 1.2.49 2.17.57 3.89.8 6.28.88 7.65.47 3.92.01 3.56-.19 3.34-.44 2.43-.64 1.39-.67.78-.74.34-.82.43-5.22.21-5.72.07-4.6.01-1.89-12.09.02Z"/><path fill="#fac896" d="m620.03 428.75-2.94-.57-7.58-1.53-10.38-2.21-11.34-2.6-10.46-2.71-4.54-1.38-3.2-1.16-2.5-1.13-1.48-1.01-2.29-2.24-1.17-1.1-1.8-1.25-2.25-1.12-3.79-1.35-2.45-.44-1.88-.72-3.11-1.71-1.41-.6-1.41-.18-.86.34-.35.75.05 1 .41 1.3.68 1.28.89 1.21 1.06 1.03 1.07.64 2.92 1.48 1.32.89 1 .87.71.94.23.77-.48 2.33-.31 1.75-.13 2.1.25 2.11.81 2.1.88 1.22 1.31 1.13 1.86 1.05 4.39 2.21 8.31 4 10.56 5.01 11.13 5.25 10.03 4.72 7.24 3.4 2.79 1.3 2.32.46 2.12-.09 1.99-.61 1.84-1.04 1.69-1.39 1.54-1.79 1.86-3.05 1.36-3.45.58-2.42.28-2.36-.01-2.3-.33-2.26-.67-1.97-1-1.74-1.35-1.43-1.75-1.05-2.26-.68Z"/><path fill="#e52822" d="m609.36 456.7.02-4.91.4-6.87.45-3.7.67-3.57.95-3.38 1.2-2.71 1.05-1.56 1.16-1.07 1.3-.68.95-.01 5.24 1.03 9.5 1.54 11.65 1.44 6.04.5 5.65.24 5.39-.1 4.23-.48 1.96.54 1.54.98 1.2 1.42.89 1.72.67 1.98.43 2.27.27 3.47-.05 3.4-.57 5.67-.4 2.36-39.93 5.07-9.41.7-11.05-3.42-.56-.28-.44-.43-.29-.54-.11-.62Z"/><path fill="#ed5858" d="m616.48 435.19-1.43 1.43-.2.48.2.48.48.2.48-.2 1.43-1.43.2-.48-.2-.48-.48-.2-.48.2ZM653.39 435.19l-.48-.2-.48.2-1.43 1.43-.2.48.2.48.48.2.48-.2 1.43-1.43.2-.48-.2-.48ZM651.9 452.23l-1.42 1.43-.2.48.2.48.48.2.48-.2 1.43-1.43.2-.48-.2-.48-.48-.2-.49.2ZM653.39 447.28l-.48-.19-.48.19-1.43 1.43-.2.48.2.49.48.19.48-.19 1.43-1.43.2-.49-.2-.48ZM653.39 441.24l-.48-.2-.48.2-1.43 1.43-.2.48.2.48.48.2.48-.2 1.43-1.43.2-.48-.2-.48ZM645.34 442.2l1.43 1.43.48.2.49-.2.19-.48-.19-.48-1.44-1.43-.48-.2-.48.2-.2.48.2.48ZM635.59 452.23l-1.44 1.43-.19.48.19.48.49.2.48-.2 1.43-1.43.2-.48-.2-.48-.48-.2-.48.2ZM637.07 447.28l-.48-.19-.48.19-1.43 1.43-.2.48.2.49.48.19.48-.19 1.43-1.43.2-.49-.2-.48ZM645.34 448.25l1.43 1.43.48.19.49-.19.19-.49-.19-.48-1.44-1.43-.48-.19-.48.19-.2.48.2.49ZM646.77 437.58l.48.2.49-.2.19-.48-.19-.48-1.44-1.43-.48-.2-.48.2-.2.48.2.48 1.43 1.43ZM647.3 454.62l.48.2.48-.2.2-.48-.2-.48-1.43-1.43-.48-.2-.48.2-.2.48.2.48 1.43 1.43ZM617.44 441.24l-.48-.2-.48.2-1.43 1.43-.2.48.2.48.48.2.48-.2 1.43-1.43.2-.48-.2-.48ZM615.49 431.54l1.43-1.43.19-.48-.19-.48-.49-.2-.48.2-1.43 1.43-.19.48.19.48.49.2.48-.2ZM611.78 437.58l.2-.48-.2-.48-.5-.5-.38 1.52.45.14.43-.2ZM617.44 447.28l-.48-.19-.48.19-1.43 1.43-.2.48.2.49.48.19.48-.19 1.43-1.43.2-.49-.2-.48ZM615.95 452.23l-1.43 1.43-.19.48.19.48.49.2.48-.2 1.43-1.43.19-.48-.19-.48-.49-.2-.48.2ZM610 458.1l.54.36-.18-.19-.36-.17ZM611.78 443.63l.2-.48-.2-.48-1.42-1.43-.12-.08-.23 1.66.81.81.48.2.48-.2ZM612.31 454.62l.2-.48-.2-.48-1.43-1.43-.48-.2-.48.2-.2.48.2.48 1.43 1.43.48.2.48-.2ZM610.82 449.68l.48.19.48-.19.2-.49-.2-.48-1.42-1.43-.36-.18-.4.05-.08 1.22 1.3 1.31ZM617.44 458.27l-.48-.2-.48.2-1.43 1.43-.11.16 1.43.45 1.07-1.08.2-.48-.2-.48ZM666.4 437.58l.48.2.48-.2.2-.48-.2-.48-1.43-1.43-.48-.2-.48.2-.2.48.2.48 1.43 1.43ZM665.5 452.23l-.2.48.2.48 1.43 1.43.48.2.48-.2.2-.48-.2-.48-1.43-1.43-.48-.2-.48.2ZM666.4 449.68l.48.19.48-.19.2-.49-.2-.48-1.43-1.43-.48-.19-.48.19-.2.48.2.49 1.43 1.43ZM664.97 442.2l1.43 1.43.48.2.49-.2.19-.48-.19-.48-1.43-1.43-.48-.2-.49.2-.19.48.19.48ZM653.39 458.27l-.48-.2-.48.2-.38.38 1.47-.19-.13-.19ZM670.63 437.58l.45.19-.46-1.14-.19.48.2.47ZM671.07 454.62l.44-.44.28-2.11-.25.16-1.43 1.43-.2.48.2.48.48.2.48-.2ZM645.34 458.27l-.2.48.2.48.24.24 1.71-.22-.99-.98-.48-.2-.48.2ZM670.63 442.67l-.2.48.2.48.48.2.48-.2.5-.5-.18-1.74-1.28 1.28ZM670.63 448.71l-.2.48.2.49.48.19.48-.19.48-.48.1-1.99-.1.07-1.44 1.43ZM629.02 442.2l1.43 1.43.48.2.49-.2.19-.48-.19-.48-1.43-1.43-.49-.2-.48.2-.2.48.2.48ZM634.15 431.54l.49.2.48-.2.28-.29-1.44-.19.19.48ZM637.07 459.23l.2-.48-.2-.48-.48-.2-.48.2-1.43 1.43-.2.48.2.48.26.16.58-.07.12-.09 1.43-1.43ZM631.94 431.54l.18-.35-.04-.4-2.18-.33 1.08 1.08.48.2.48-.2ZM637.07 435.19l-.48-.2-.48.2-1.43 1.43-.2.48.2.48.48.2.48-.2 1.43-1.43.2-.48-.2-.48ZM637.07 441.24l-.48-.2-.48.2-1.43 1.43-.2.48.2.48.48.2.48-.2 1.43-1.43.2-.48-.2-.48ZM630.98 454.62l.48.2.48-.2.2-.48-.2-.48-1.43-1.43-.48-.2-.48.2-.2.48.2.48 1.43 1.43ZM630.45 460.66l.48.2.49-.2.19-.48-.19-.48-1.43-1.43-.49-.2-.48.2-.2.48.2.48 1.43 1.43ZM629.02 448.25l1.43 1.43.48.19.49-.19.19-.49-.19-.48-1.43-1.43-.49-.19-.48.19-.2.48.2.49ZM630.45 437.58l.48.2.49-.2.19-.48-.19-.48-1.43-1.43-.49-.2-.48.2-.2.48.2.48 1.43 1.43Z"/><path fill="#b01f1a" d="m611.3 458.74 1.27-1.19 1.51-1.1 2.59-1.46 3.06-1.26 4.31-1.17 4.19-1.08 3.81-1.3 6.25-2.38 1.74-.5.98-.06.52.2 1.27 1.66.51 1.4-.07 1.24-.52 1.2-.94 1.18-1.45 1.17-2.51 1.45-3.09 1.34-3.24 1.11-3.15.9-5.24 1.21-2.17.41-9.63-2.97Z"/><path fill="#e62822" d="m630.3 453.19-20.74 11.72-.69.54-.49.7-.27.81-.02.88.82 5.05.67 3.15.91 3.53 1.14 3.51 1.39 3.36 1.72 3.11 1.95 2.52 1.52 1.39 1.65.97 1.79.6 3.26-.85 8.14-2.28 10.84-3.31 11.35-3.94 5.33-2.14 4.34-2.01 2.72-1.52 1.87-1.32 1.22-1.14-1.43-2.5-3.84-6.39-5.07-8.35-5.09-8.36-3.92-6.43-1.58-2.58-19.49 11.28Z"/><path fill="#e52822" d="m710.52 472.15-5.47-5.46-7.8-8.55-8.75-10.04-8.34-9.93-6.54-8.24-.59-.63-.75-.38-.97-.14-1.7.28-3.03 1.12-3.48 1.68-5.42 2.88-4.48 2.68-4.59 3.11-9.14 6.6-4.62 3.21-4.55 2.85-20.74 11.72-.69.54-.49.7-.27.81-.02.89.97 5.83.83 3.67 1.15 4.01 1.47 3.93 1.78 3.54 1.45 2.16 1.59 1.7 1.72 1.32 1.44.58 1.45.18 1.54-.21 7.38-2.03 10.82-3.24 11.83-4 .01.01 1.05 5.01 1.19 4.67 1.77 5.84 2.06 5.71 2.35 5.61 2.65 5.47 2.92 5.33 3.21 5.18.63.61.83.27 4.87.14 4.73-.39 4.6-.92 4.51-1.36 4.35-1.72 4.22-2.08 6.02-3.63 5.54-4.02 5.17-4.34 4.5-4.26 4.12-4.3 3.26-3.73 4.72-5.93 1.65-2.32-1.78-1.25-4.52-3.22-6.03-4.39-6.28-4.77-5.31-4.36Z"/><path fill="#ed5858" d="m672.85 461.54 1.43 1.42.48.2.48-.2.2-.48-.2-.48-1.43-1.42-.48-.2-.48.2-.2.48.2.48ZM672.85 467.56l1.43 1.42.48.2.48-.2.2-.48-.2-.48-1.43-1.42-.48-.2-.48.2-.2.48.2.48ZM672.85 455.52l1.43 1.42.48.2.48-.2.2-.48-.2-.48-1.43-1.42-.48-.2-.48.2-.2.48.2.48ZM672.85 478.5l1.43 1.42.48.2.48-.2.2-.48-.2-.48-1.43-1.42-.48-.2-.48.2-.2.48.2.48ZM672.85 490.54l1.43 1.43.48.19.48-.19.2-.48-.2-.48-1.43-1.43-.48-.19-.48.19-.2.48.2.48ZM672.85 484.52l1.43 1.42.48.2.48-.2.2-.47-.2-.48-1.43-1.43-.48-.19-.48.19-.2.48.2.48ZM672.85 444.57l1.43 1.43.48.2.48-.2.2-.48-.2-.48-1.43-1.42-.48-.2-.48.2-.2.47.2.48ZM672.85 501.49l1.43 1.42.48.2.48-.2.2-.48-.2-.48-1.43-1.42-.48-.2-.48.2-.2.48.2.48ZM715.42 485.94l1.43-1.42.2-.48-.2-.48-.48-.19-.48.19-1.43 1.43-.2.48.2.47.48.2.48-.2ZM674.28 433.96l.48.19.48-.19.2-.48-.2-.48-1.43-1.43-.48-.19-.48.19-.2.48.2.48 1.43 1.43ZM680.9 466.6l-.48-.2-.48.2-1.43 1.42-.2.48.2.48.48.2.48-.2 1.43-1.42.2-.48-.2-.48ZM680.9 460.58l-.48-.2-.48.2-1.43 1.42-.2.48.2.48.48.2.48-.2 1.43-1.43.2-.47-.2-.48ZM672.85 438.55l1.43 1.43.48.19.48-.19.2-.48-.2-.48-1.43-1.42-.48-.2-.48.2-.2.47.2.48ZM680.9 477.54l-.48-.2-.48.2-1.43 1.43-.2.47.2.48.48.2.48-.2 1.43-1.42.2-.48-.2-.48ZM678.51 439.98l.48.19.48-.19 1.11-1.11-.87-1.05-1.2 1.2-.2.48.2.48ZM680.9 443.62l-.48-.2-.48.2-1.43 1.42-.2.48.2.48.48.2.48-.2 1.43-1.43.2-.48-.2-.47ZM709.76 506.55l-.48-.2-.48.2-.2.48.2.48 1.43 1.42.48.2.49-.2.19-.48-.19-.48-1.44-1.42ZM672.85 507.51l1.43 1.42.48.2.48-.2.2-.48-.2-.48-1.43-1.42-.48-.2-.48.2-.2.48.2.48ZM710.23 485.94l.48.2.49-.2.19-.47-.19-.48-1.44-1.43-.48-.19-.48.19-.2.48.2.48 1.43 1.42ZM711.2 501.95l-1.43-1.42-.48-.2-.48.2-.2.48.2.48 1.43 1.42.48.2.48-.2.2-.48-.2-.48ZM711.2 513.99l-1.43-1.42-.48-.2-.48.2-.2.48.2.48 1.43 1.42.34.17.81-.63-.19-.5ZM711.72 495.93l-1.43-1.42-.48-.2-.48.2-.2.48.2.47 1.43 1.43.48.2.48-.2.2-.48-.2-.48ZM714.46 491.97l.48.19.48-.19 1.43-1.43.2-.48-.2-.48-.48-.19-.48.19-1.43 1.43-.2.48.2.48ZM709.76 477.54l-.48-.2-.48.2-.2.48.2.48 1.43 1.42.48.2.49-.2.19-.48-.19-.47-1.44-1.43ZM708.8 490.54l1.43 1.43.48.19.48-.19.2-.48-.2-.48-1.43-1.43-.48-.19-.48.19-.2.48.2.48ZM674.81 519.87l.48.2.48-.2.2-.48-.2-.48-1.43-1.42-.48-.2-.48.2-.2.48.2.48 1.43 1.42ZM675.77 495.93l-1.43-1.42-.48-.2-.48.2-.2.48.2.47 1.43 1.43.48.2.48-.2.2-.48-.2-.48ZM692.48 523.51l-.2.48.2.48.83.83 1.36-.57-1.22-1.22-.49-.2-.48.2ZM672.85 513.53l1.43 1.42.48.2.48-.2.2-.48-.2-.48-1.43-1.42-.48-.2-.48.2-.2.48.2.48ZM675.77 472.94l-1.43-1.42-.48-.2-.48.2-.2.48.2.48 1.43 1.42.48.2.48-.2.2-.48-.2-.48ZM674.28 525.89l.48.2.48-.2.2-.48-.2-.48-1.43-1.42-.48-.2-.48.2-.2.48.2.48 1.43 1.42ZM675.77 449.96l-1.43-1.42-.48-.2-.48.2-.2.48.2.48 1.43 1.42.48.2.48-.2.2-.48-.2-.48ZM680.9 454.56l-.48-.2-.48.2-1.43 1.42-.2.48.2.48.48.2.48-.2 1.43-1.42.2-.48-.2-.48ZM698.14 462.96l.48.2.48-.2 1.27-1.26-.92-1-1.31 1.3-.2.48.2.48ZM700.53 466.6l-.48-.2-.48.2-1.43 1.42-.2.48.2.48.48.2.48-.2 1.43-1.42.2-.48-.2-.48ZM700.53 477.54l-.48-.2-.48.2-1.43 1.43-.2.47.2.48.48.2.48-.2 1.43-1.42.2-.48-.2-.48ZM680.9 483.56l-.48-.19-.48.19-1.43 1.43-.2.48.2.47.48.2.48-.2 1.43-1.42.2-.48-.2-.48ZM692.48 461.54l1.43 1.42.48.2.48-.2.2-.48-.2-.48-1.42-1.42-.49-.2-.48.2-.2.48.2.48ZM692.48 478.5l1.43 1.42.48.2.48-.2.2-.48-.2-.48-1.42-1.42-.49-.2-.48.2-.2.48.2.48ZM692.48 467.56l1.43 1.42.48.2.48-.2.2-.48-.2-.48-1.42-1.42-.49-.2-.48.2-.2.48.2.48ZM693.91 456.94l.48.2.48-.2.2-.48-.2-.48-1.42-1.42-.49-.2-.48.2-.2.48.2.48 1.43 1.42ZM697.62 496.89l.48.2.48-.2 1.43-1.43.19-.47-.19-.48-.49-.2-.48.2-1.42 1.42-.2.48.2.48ZM698.58 473.9l1.43-1.42.19-.48-.19-.48-.49-.2-.48.2-1.42 1.42-.2.48.2.48.48.2.48-.2ZM700.53 489.58l-.48-.19-.48.19-1.43 1.43-.2.48.2.48.48.19.48-.19 1.43-1.43.2-.48-.2-.48ZM692.48 484.52l1.43 1.42.48.2.48-.2.2-.47-.2-.48-1.42-1.43-.49-.19-.48.19-.2.48.2.48ZM697.62 519.87l.48.2.48-.2 1.43-1.42.19-.48-.19-.48-.49-.2-.48.2-1.42 1.42-.2.48.2.48ZM700.53 512.57l-.48-.2-.48.2-1.43 1.42-.2.48.2.48.48.2.48-.2 1.43-1.42.2-.48-.2-.48ZM700.53 500.53l-.48-.2-.48.2-1.43 1.42-.2.48.2.48.48.2.48-.2 1.43-1.42.2-.48-.2-.48ZM700.53 506.55l-.48-.2-.48.2-1.43 1.42-.2.48.2.48.48.2.48-.2 1.43-1.42.2-.48-.2-.48ZM700.53 483.56l-.48-.19-.48.19-1.43 1.43-.2.48.2.47.48.2.48-.2 1.43-1.42.2-.48-.2-.48ZM692.48 501.49l1.43 1.42.48.2.48-.2.2-.48-.2-.48-1.42-1.42-.49-.2-.48.2-.2.48.2.48ZM677.98 496.89l.49.2.48-.2 1.43-1.43.19-.47-.19-.48-.49-.2-.48.2-1.43 1.42-.19.48.19.48ZM677.98 519.87l.49.2.48-.2 1.43-1.42.19-.48-.19-.48-.49-.2-.48.2-1.43 1.42-.19.48.19.48ZM680.9 512.57l-.48-.2-.48.2-1.43 1.42-.2.48.2.48.48.2.48-.2 1.43-1.42.2-.48-.2-.48ZM680.9 506.55l-.48-.2-.48.2-1.43 1.42-.2.48.2.48.48.2.48-.2 1.43-1.42.2-.48-.2-.48ZM680.9 489.58l-.48-.19-.48.19-1.43 1.43-.2.48.2.48.48.19.48-.19 1.43-1.43.2-.48-.2-.48ZM680.9 500.53l-.48-.2-.48.2-1.43 1.42-.2.48.2.48.48.2.48-.2 1.43-1.42.2-.48-.2-.48ZM679.47 525.89l1.43-1.42.2-.48-.2-.48-.48-.2-.48.2-1.43 1.42-.2.48.2.48.48.2.48-.2ZM694.44 519.87l.48.2.48-.2.2-.48-.2-.48-1.43-1.42-.48-.2-.48.2-.2.48.2.48 1.43 1.42ZM678.95 450.92l1.43-1.42.19-.48-.19-.48-.49-.2-.48.2-1.43 1.42-.19.48.19.48.49.2.48-.2ZM692.48 507.51l1.43 1.42.48.2.48-.2.2-.48-.2-.48-1.42-1.42-.49-.2-.48.2-.2.48.2.48ZM692.48 513.53l1.43 1.42.48.2.48-.2.2-.48-.2-.48-1.42-1.42-.49-.2-.48.2-.2.48.2.48ZM677.98 473.9l.49.2.48-.2 1.43-1.42.19-.48-.19-.48-.49-.2-.48.2-1.43 1.42-.19.48.19.48ZM695.4 472.94l-1.43-1.42-.48-.2-.48.2-.2.48.2.48 1.43 1.42.48.2.48-.2.2-.48-.2-.48ZM695.4 495.93l-1.43-1.42-.48-.2-.48.2-.2.48.2.47 1.43 1.43.48.2.48-.2.2-.48-.2-.48ZM692.48 490.54l1.43 1.43.48.19.48-.19.2-.48-.2-.48-1.42-1.43-.49-.19-.48.19-.2.48.2.48ZM664.58 489.58l-.48-.19-.48.19-1.43 1.43-.2.48.2.48.48.19.48-.19 1.43-1.43.2-.48-.2-.48ZM664.58 500.53l-.48-.2-.48.2-1.43 1.42-.2.48.2.48.48.2.48-.2 1.43-1.42.2-.48-.2-.48ZM664.58 477.54l-.48-.2-.48.2-1.43 1.43-.2.47.2.48.48.2.48-.2 1.43-1.42.2-.48-.2-.48ZM663.62 506.55l-1.43 1.42-.2.48.2.48.48.2.48-.2 1.43-1.42.2-.48-.2-.48-.48-.2-.48.2ZM664.58 443.62l-.48-.2-.48.2-1.43 1.42-.2.48.2.48.48.2.48-.2 1.43-1.43.2-.48-.2-.47ZM664.58 454.56l-.48-.2-.48.2-1.43 1.42-.2.48.2.48.48.2.48-.2 1.43-1.42.2-.48-.2-.48ZM664.58 460.58l-.48-.2-.48.2-1.43 1.42-.2.48.2.48.48.2.48-.2 1.43-1.43.2-.47-.2-.48ZM664.58 466.6l-.48-.2-.48.2-1.43 1.42-.2.48.2.48.48.2.48-.2 1.43-1.42.2-.48-.2-.48ZM664.58 483.56l-.48-.19-.48.19-1.43 1.43-.2.48.2.47.48.2.48-.2 1.43-1.42.2-.48-.2-.48ZM638.33 456.94l.48.2.48-.2.2-.48-.2-.48-1.43-1.42-.48-.2-.48.2-.2.48.2.48 1.43 1.42ZM661.66 496.89l.48.2.49-.2 1.43-1.43.19-.47-.19-.48-.48-.2-.49.2-1.43 1.42-.19.48.19.48ZM636.9 467.56l1.43 1.42.48.2.48-.2.2-.48-.2-.48-1.43-1.42-.48-.2-.48.2-.2.48.2.48ZM716.85 500.53l-.48-.2-.48.2-1.43 1.42-.2.48.2.48.48.2.48-.2 1.43-1.42.2-.48-.2-.48ZM639.82 472.94l-1.43-1.42-.48-.2-.48.2-.2.48.2.48 1.43 1.42.48.2.48-.2.2-.48-.2-.48ZM662.63 450.92l1.43-1.42.19-.48-.19-.48-.48-.2-.49.2-1.43 1.42-.19.48.19.48.48.2.49-.2ZM637.86 483.56l-.48-.19-.48.19-.2.48.2.48 1.43 1.42.48.2.48-.2.2-.47-.2-.48-1.43-1.43ZM661.66 473.9l.48.2.49-.2 1.43-1.42.19-.48-.19-.48-.48-.2-.49.2-1.43 1.42-.19.48.19.48ZM657.96 491.97l.48.19.48-.19.2-.48-.2-.48-1.43-1.43-.48-.19-.48.19-.2.48.2.48 1.43 1.43ZM659.45 449.96l-1.43-1.42-.48-.2-.48.2-.2.48.2.48 1.43 1.42.48.2.48-.2.2-.48-.2-.48ZM659.45 472.94l-1.43-1.42-.48-.2-.48.2-.2.48.2.48 1.43 1.42.48.2.48-.2.2-.48-.2-.48ZM657.06 494.51l-.2.48.2.47 1.43 1.43.48.2.48-.2.2-.48-.2-.48-1.43-1.42-.48-.2-.48.2ZM609 466.6l-.4-.19-.43.1-.14 1.33.08.6.89-.88.2-.48-.2-.48ZM658.92 502.91l.2-.48-.2-.48-1.43-1.42-.07-.05.9 2.6.6-.17ZM664.58 512.57l-.48-.2-.48.2-.98.97.61 1.3 1.33-1.32.2-.48-.2-.47ZM656.53 455.52l1.43 1.42.48.2.48-.2.2-.48-.2-.48-1.43-1.42-.48-.2-.48.2-.2.48.2.48ZM657.96 439.98l.48.19.48-.19.2-.48-.2-.48-1.43-1.42-.48-.2-.48.2-.2.47.2.48 1.43 1.43ZM664.58 437.6l-.48-.2-.48.2-1.43 1.42-.2.48.2.48.48.2.48-.2 1.43-1.42.2-.48-.2-.48ZM656.53 444.57l1.43 1.43.48.19.48-.19.2-.48-.2-.48-1.43-1.42-.48-.2-.48.2-.2.47.2.48ZM656.53 484.52l1.43 1.42.48.2.48-.2.2-.47-.2-.48-1.43-1.43-.48-.19-.48.19-.2.48.2.48ZM656.53 478.5l1.43 1.42.48.2.48-.2.2-.48-.2-.48-1.43-1.42-.48-.2-.48.2-.2.48.2.48ZM656.53 461.54l1.43 1.42.48.2.48-.2.2-.48-.2-.48-1.43-1.42-.48-.2-.48.2-.2.48.2.48ZM656.53 467.56l1.43 1.42.48.2.48-.2.2-.48-.2-.48-1.43-1.42-.48-.2-.48.2-.2.48.2.48ZM636.9 461.54l1.43 1.42.48.2.48-.2.2-.48-.2-.48-1.43-1.42-.48-.2-.48.2-.2.48.2.48ZM628.63 483.56l-.48-.19-.48.19-1.43 1.43-.2.48.2.47.48.2.48-.2 1.43-1.42.2-.48-.2-.48ZM626.67 473.9l1.44-1.42.19-.48-.19-.48-.49-.2-.48.2-1.43 1.42-.19.48.19.48.48.2.48-.2ZM627.67 489.58l-1.43 1.43-.2.48.2.48.48.19.48-.19 1.43-1.43.2-.48-.2-.48-.48-.19-.48.19ZM626.24 456.94l.48.2.48-.2 1.43-1.42.2-.48-.2-.48-.39-.18-.9.5-1.1 1.11-.2.47.2.48ZM628.63 466.6l-.48-.2-.48.2-1.43 1.42-.2.48.2.48.48.2.48-.2 1.43-1.42.2-.48-.2-.48ZM628.63 460.58l-.48-.2-.48.2-1.43 1.42-.2.48.2.48.48.2.48-.2 1.43-1.42.2-.48-.2-.48ZM642.56 445.04l-.2.48.2.48.48.2.48-.2 1.43-1.43.2-.48-.2-.47-.33-.17-1.71 1.24-.35.35ZM639.29 478.97l-1.43-1.43-.48-.2-.48.2-.2.48.2.48 1.43 1.42.48.2.48-.2.2-.48-.2-.47ZM713.93 496.89l.49.2.48-.2 1.43-1.43.2-.47-.2-.48-.48-.2-.48.2-1.44 1.42-.19.48.19.48ZM621.54 477.54l-.48-.2-.48.2-.2.48.2.48 1.43 1.42.48.2.48-.2.2-.48-.2-.47-1.43-1.43ZM715.89 477.54l-1.43 1.43-.2.47.2.48.48.2.48-.2 1.43-1.42.2-.48-.2-.48-.48-.2-.48.2ZM715.89 506.55l-1.43 1.42-.2.48.2.48.48.2.48-.2 1.43-1.42.2-.48-.2-.48-.48-.2-.48.2ZM662.19 433l-.2.48.2.48.48.2.48-.2 1.43-1.43.2-.47-.2-.48-.33-.17-.92.45-1.14 1.14ZM728.96 494.51l-.2.48.2.47.75.76.86-1.07-.65-.64-.48-.2-.48.2ZM709.61 471.36l-.28.16-.2.48.2.48 1.43 1.42.48.2.48-.2.19-.53-1.45-1.23-.85-.78ZM729.86 491.97l.48.19.49-.19.19-.48-.19-.48-1.43-1.43-.49-.19-.48.19-.2.48.2.48 1.43 1.43ZM628.63 477.54l-.48-.2-.48.2-1.43 1.43-.2.47.2.48.48.2.48-.2 1.43-1.42.2-.48-.2-.48ZM644.95 460.58l-.48-.2-.48.2-1.43 1.42-.2.48.2.48.48.2.48-.2 1.43-1.42.2-.48-.2-.48ZM644.95 466.6l-.48-.2-.48.2-1.43 1.42-.2.48.2.48.48.2.48-.2 1.43-1.42.2-.48-.2-.48ZM643 473.9l1.43-1.42.2-.48-.2-.48-.48-.2-.48.2-1.43 1.42-.2.48.2.48.48.2.48-.2ZM643.46 448.54l-1.43 1.42-.19.48.19.48.48.2.49-.2 1.42-1.42.2-.48-.2-.48-.48-.2-.48.2ZM644.95 454.56l-.48-.2-.48.2-1.43 1.42-.2.48.2.48.48.2.48-.2 1.43-1.42.2-.48-.2-.48ZM637.43 449.5l1.43 1.42.48.2.48-.2.2-.48-.2-.48-1.43-1.42-.61-.17-.44.31-.1.42.19.4ZM621.54 483.56l-.48-.19-.48.19-.2.48.2.48 1.43 1.42.48.2.48-.2.2-.47-.2-.48-1.43-1.43ZM643.99 483.56l-1.43 1.43-.2.48.2.47.48.2.48-.2 1.43-1.42.2-.48-.2-.48-.48-.19-.48.19ZM622.01 462.96l.48.2.48-.2.2-.48-.2-.48-1.43-1.42-.48-.2-.48.2-.2.48.2.48 1.43 1.42ZM623.5 472.94l-1.43-1.42-.48-.2-.48.2-.2.48.2.48 1.43 1.42.48.2.48-.2.2-.48-.2-.48ZM644.95 477.54l-.48-.2-.48.2-1.43 1.43-.2.47.2.48.48.2.48-.2 1.43-1.42.2-.48-.2-.48ZM620.58 467.56l1.43 1.42.48.2.48-.2.2-.48-.2-.48-1.43-1.42-.48-.2-.48.2-.2.48.2.48ZM636.9 489.58l-.2.48.2.48.08.08 1.47-.45-.59-.59-.48-.19-.48.19ZM622.21 494.64l-.14-.13-.48-.2-.48.2-.07.1 1.17.03ZM622.01 491.97l.48.19.48-.19.2-.48-.2-.48-1.43-1.43-.48-.19-.48.19-.2.48.2.48 1.43 1.43Z"/><path fill="#b01f1a" d="m653.51 485.3.1.48 1.01 4.75 1.14 4.46.04.14.86-2.69 1.55-2.86 1.94-2.72 2.1-2.5.6-.92.29-.98v-1.1l-4.56 1.97-5.07 1.97Z"/><path fill="#231f20" d="m636.62 409.63-.29.71-.71.29-.71-.29-.29-.71.29-.71.71-.29.71.29.29.71Z"/><path fill="#f74000" d="m636.47 418.01 1.23-.24 2.48-.73 1.2-.6.76-.67-.27 1.03-.43 1-.64 1.05-.84.79-.98.27-.65-.14-.81-.56-1.05-1.2Z"/><path fill="#fac896" d="m633.69 409.34-.3.96-.6 2.19-.5 2.34-.09.98.1.44.37.27.57.06 1.22-.25.75-.27-.13-1.09-.54-2.31-.58-2.28-.27-1.04Z"/><path fill="#231f20" d="m637.33 408.42-.24-.17-.39-.75-.67-.51-.77-.06-.73.24-.19.02-.15-.11.09-.34.93-.31.98.08.87.63.5.94-.15.32-.08.02Z"/><path fill="#fac896" d="m649.17 409.27.28-1.12.4-.95.58-.8.49-.32.59-.02.8.34 1.03 1.12.75 1.62.33 1.78-.14 1.58-.4.89-.63.56-.94.28-.99-.15-.73-.4-.54-.66-.53-1.22-.26-1.21-.09-1.32Z"/><path fill="#129f72" d="m122.97 506.86-2.11 1.64-2.08 1.95-2.91 3.26-1.86 2.44-1.96 3.03-2.04 3.71-1.74 3.83-1.59 4.5-1.4 5.25-.95 5.33-.55 6.1-.08 6.97-.3 1.28-1.39 3.77-4.49 10.66-6.48 14.66-7.71 17.01-8.12 17.74-7.77 16.84-6.62 14.29-4.68 10.13-1.96 4.32.3.47 1.12 1.06 3.24 2.35 1.96 1.17 1.97.98 1.95.7 1.53.24 1.06-.47 2.88-2.24 3.22-2.93 4.46-4.36 10.19-10.67 11.44-12.81 5.81-6.84 5.65-6.91 5.41-6.93 4.8-6.52 4.37-6.42 3.35-5.52 3.82-7.1 2.15-4.33 2.18-5.01 1.87-5.28 1.45-5.67.62-3.88.26-3.96-.11-4.06-.56-4.02-1.09-4.06-1.67-4.14-1.7-4.15-1.2-4.12-.73-4.12-.36-4.17-.05-3.99.24-3.81.77-5.55 1-4.66 1.21-4.24.97-2.87 1.07-2.66-16.06 2.79Z"/><path fill="#017643" d="m66.4 664.77-.27-.1-.15-.29.1-.3 2.67-3.27 6.83-8.42 9.66-12 11.12-14.03 11.26-14.48 3.47-4.83 3.07-4.79 2.69-4.73 3.56-7.2 2.78-6.61 2.3-6.42 1.63-5.33 2.01-8.22.58-3.18.17-.27.31-.08.27.16.08.31-.58 3.2-2.03 8.28-1.64 5.37-2.32 6.48-2.8 6.65-3.59 7.26-2.7 4.77-3.09 4.82-3.5 4.87-11.26 14.49-11.14 14.03-9.66 12-6.83 8.43-2.68 3.27-.32.16Z"/><path fill="#97bff7" d="m87.22 707.97-.3.74-1.01.82-2.2.92-3.74.95-5.49.82-5.97.49-7.02.19-7.01-.19-5.97-.49-5.49-.82-3.74-.95-2.2-.92-1.01-.82-.3-.74.3-.74 1.01-.82 2.2-.93 3.74-.94 5.49-.83 5.97-.49 7.01-.18 7.02.18 5.97.49 5.49.83 3.74.94 2.2.93 1.01.82.3.74Z"/><path fill="#037a4a" d="m132.86 552.17.3 2.62.53 6.88.18 4.46.03 5.25-.18 5.42-.48 5.67-.84 5.63-1.26 5.39-1.13 3.48-1.36 3.16-1.58 2.86 1.75-2.75 4.13-7.22 2.36-4.7 2.4-5.45 2.07-5.69 1.58-5.82.69-3.95.26-3.76-.14-3.6-.82-4.88-.91-2.77-.86-1.52-.8-.87-.75-.42-1.26-.15-1.21.38-1.09.71-.84.75-.77.89Z"/><path fill="#97bff7" d="m227.27 707.04-.27.6-.94.68-2.11.78-3.53.78-5.18.69-5.64.41-6.62.15-6.63-.15-5.63-.41-5.19-.69-3.52-.78-2.12-.78-.93-.68-.27-.6.27-.6.93-.68 2.12-.79 3.52-.78 5.19-.69 5.63-.4 6.63-.16 6.62.16 5.64.4 5.18.69 3.53.78 2.11.79.94.68.27.6Z"/><path fill="#129f72" d="m131 508.37-.71 3.36-.56 3.59-.57 5.31-.26 5.79.18 6.88.44 4.67.8 4.88 1.2 5.1 1.59 4.97 2.14 4.95 2.7 4.94 2.34 3.48 2.74 3.38 3.18 3.27 3.64 3.18 1.76 2.07 2.04 3.17 2.34 4.6 2.7 6.38 2.9 8.23 3.05 10.49 3.2 13.13 3.69 16.49 3.79 16.59 3.36 14.53 2.41 10.31.92 3.92 1.61.36 4.07.47 2.56-.01 2.86-.33 2.83-.76 2.8-1.33.28-4.56.53-11.6.59-16.22.42-18.42.05-18.19-.19-8.49-.35-7.05-.6-6.4-.73-4.05-3.44-13.48-4.04-14.59-2.27-7.31-2.4-6.95-2.63-6.69-2.68-5.81-.75-1.97-.79-3.17-1.26-7.4-.94-7.71-.59-6.06-.21-2.46-45.74 2.52Z"/><path fill="#017643" d="m192.46 677.51-.08-.01-.27-.17-.06-.32.31-2.9.12-5.09-.42-13-1.03-16.33-1.43-17.98-1.6-17.96-1.56-16.27-1.27-12.9-.29-2.9-.98-6.73-1.51-6.54-1.91-6.35-2.1-5.77-2.26-5.46-2.08-4.5-3.5-6.77-1.49-2.57-.05-.32.19-.26.32-.05.26.19 1.49 2.59 3.53 6.82 2.09 4.53 2.29 5.51 2.11 5.82 1.93 6.4 1.51 6.59 1 6.79.29 2.9 1.27 12.92 1.55 16.29 1.61 17.99 1.43 18.02 1.03 16.37.41 13.04-.12 5.11-.32 2.93-.14.25-.27.09Z"/><path fill="#037a4a" d="m118.69 509.74-4.79 6.58 2.96 1.16 7.56 2.77 10.14 3.37 5.45 1.59 5.27 1.33 5.12 1 4.17.45 8.24.09 8.21-.41 8.19-.91-1.15-7.83-59.37-9.19Z"/><path fill="#fac896" d="m198.61 445.78-1.72-2.47-1.16-2.63-.65-2.82-.12-2.89.44-2.84 1-2.84.6-1.08.84-.9 7.9-5.42 7.57-5.87 1.93-1.84 2.97-3.21 6.86-7.96 7.55-9.11 6.93-8.49 5.02-6.1.85-.75 1.2-.68 2.37-.93 1.13-.34 1.97.14 1.82.64 1.6 1.08 1.29 1.5.86 1.78.34 1.9-.15 1.92-.66 1.87-4.91 9.22-5.79 10.63-5.91 10.55-5.33 8.98-2.35 3.65-1.65 2.27-5.55 6.91-5.95 7.35-5.24 6.44-.99.9-1.13.59-1.3.31-1.96-.01-1.86-.5-1.68-.93-1.42-1.36-5.56-6.66Z"/><path fill="#ce3a2f" d="m182.01 686.03 1.56-.02 3.78-.16 4.69-.42 2.34-.37 1.93-.46 1.66-.66.86-.71-.11 1.14.03 1.16.29 1.63.61 1.66 1.16 1.83 1.65 1.62 2.57 1.58 3.77 1.6 3.45 1.22 6.16 2.24 2.52 1.34 1.91 1.63.33 1.04-.05.78-.36.6-1.09.66-2.48.58-3.06.3-4.81.23-8.49.55-4.52.29-4.26.12-4.05-.18-3.11-.58-1.81-.74-1.18-1-.69-1.25-.64-2.79-.41-3-.18-4.41.03-7.05ZM54.67 664.45l1.67.46 3.94 1.4 2.32 1.06 2.33 1.35 2.12 1.63 1.65 1.86-.89 1.39-.79 1.46-.84 2.03-.58 2.21-.17 2.41.19 1.59.56 1.57.95 1.58 4.63 5.46 4.07 4.81 1.4 2.18.53 1.61-.12.88-.37.68-.64.54-.8.32-1.19.13-1.7-.14-2.7-.65-3.98-1.52-6.91-3.05-3.71-1.79-3.5-1.91-3.21-2.09-2.36-2.04-1.02-1.57-.52-1.74v-1.82l.53-1.8 2.52-5.47 2.73-5.42 3.86-7.6Z"/><path fill="#fac896" d="m223.94 366.09-1.52-1.45-1.7-1.01-1.9-.59-1.99-.15-1.94.31-1.95.79-53.65 33.5-.84.72-.78 1.11-.71 1.59-.44 1.68-.19 1.93.09 2.21.65 4.05.76 1.95 1.47 2.18 2.05 2.25 1.41 1.37 1.56 1.09 1.73.84 1.83.56 1.88.27 1.97-.03 2.2-.45 2.03-.97 3.57-2.63 4.64-3.74 10.2-8.86 10.83-9.94 10.11-9.62 8.03-7.88 1.29-1.67.8-1.8.34-1.96-.12-1.98-.6-1.87-1.11-1.8Z"/><path fill="#f39c55" d="m178.58 400.44 2.79 15.02-1.52 1.42-9.22-16.88Z"/><path fill="#fcbc2e" d="m133.44 439.29 8.08-19.6.54-.93.75-.73.91-.52 1.04-.27 1.07.02 1.01.3.89.55.74.78 15.17 21.21 1.01.98 1.24.56 1.35.11 1.37-.37 29.07-13.78 1.03-.33 1.05-.04 1.03.23.95.51 1.56 1.19 2.03 1.79 2.02 2.08 2.16 2.67 1.95 2.99 1.77 3.59.94 2.54.74 2.81.52 3.11-.02 1.14-.32 1.03-.62.96-3.73 4.24-5.33 6.02-5.85 6.57-5.28 5.93-3.62 4.07-.75 1.21-.26 1.4-.4 32.62-.2 1.18-.49 1.01-.81.88-1.55 1.11-2.62 1.44-3.1 1.25-4.4 1.19-3.12.54-3.78.35-4.52.12-4.49-.17-5.28-.54-6.16-.98-6.07-1.3-6.98-1.88-8-2.53-10.57-4.46-6.92-3.33-4.02-2.36-1.01-.99-.59-1.23-.13-1.36.35-1.37 28.65-63.21Z"/><path fill="#e87c30" d="m151.7 437.67 1.06.19 1.21-.3 1.16-.61.89-.66 1.4-1.63.96-1.93-12.13-16.95-1.73.15-1.66.51-2.56 6.22.5 2.19.93 1.96 1.38 1.77 1.21.9 1.15.57 2.27.98.99.7.94 1.15.53 1.09.28.96.38 1.67.31.63.53.44ZM189.66 481.81l-9.78 10.38 9.72-5.19Z"/><path fill="#fff" d="M352.42 316.9H221.76l-2.14.29-1.9.8-1.62 1.25-1.25 1.62-.8 1.9-.29 2.14v49.22l.24 2.49.72 2.35 1.16 2.17 1.59 1.93 1.92 1.57 2.16 1.16 2.35.71 2.47.24h126.05l2.14-.29 1.9-.8 1.61-1.25 1.26-1.62.8-1.9.29-2.14V324.9l-.29-2.14-.8-1.9-1.25-1.62-1.62-1.25-1.9-.8-2.14-.29Z"/><path fill="#2355f5" d="m257.45 353.29 7.28 2.2-.89 2.68-1.42 2.43-1.77 1.8-2.15 1.3-2.92.83-3.03.22-2.45-.09-2.38-.42-2.33-.77-1.89-1.18-1.59-1.48-1.31-1.82-1.19-2.61-.67-2.72-.16-2.87.25-3.34.71-2.75 1.1-2.28 1.49-1.88 1.87-1.52 2.25-1.11 2.68-.71 3.24-.25 3.33.26 2.61.71 2.04 1.09 1.9 1.79 1.43 2.09.99 2.42-7.34 1.63-.8-1.8-.77-.83-.94-.63-1.09-.39-1.16-.12-1.29.11-1.18.44-1.03.72-.83 1-.72 1.69-.37 1.76-.04 1.84.19 2.98.49 1.94.67 1.2.79.75.92.53 1.02.31 1.09.07 1.33-.1 1.19-.44 1.08-.8 1.14-1.82.63-2.06ZM267.31 355.4l7.9-.5.33 1.54.72 1.4.75.73.88.53.99.3 1.04.07 1.45-.17 1.29-.67.71-.85.26-1.08-.25-1.03-.67-.84-1.25-.7-3-.86-3.61-1.01-2.51-1.11-1.68-1.14-1.02-1.08-.74-1.25-.45-1.38-.13-1.48.31-2.05.89-1.86 1.01-1.21 1.2-.96 1.4-.73 2.16-.65 2.2-.35 2.25-.06 3.4.25 2.55.67 1.9 1 1.3 1.24.98 1.46.65 1.63.29 1.77-7.83.46-.41-1.44-.9-1.2-1.3-.66-1.46-.17-1.14.12-1.04.5-.54.66-.19.83.17.65.43.51 1.34.64 1.45.34 3.97.96 3.83 1.42 1.92 1.25 1.51 1.73.81 1.91.26 2.07-.16 1.69-.47 1.58-.8 1.49-1.12 1.37-1.32 1.1-1.56.84-2.1.67-2.15.38-2.21.08-3.55-.21-2.64-.57-1.93-.82-1.38-1.04-1.2-1.46-.91-1.62-.6-1.77-.28-1.86ZM294.43 355.4l7.9-.5.33 1.54.71 1.4.75.73.89.53.98.3 1.05.07 1.44-.17 1.3-.67.7-.85.26-1.08-.25-1.03-.67-.84-1.25-.7-3-.86-3.61-1.01-2.51-1.11-1.67-1.14-1.02-1.08-.75-1.25-.45-1.38-.13-1.48.31-2.05.89-1.86 1.02-1.21 1.2-.96 1.39-.73 2.16-.65 2.2-.35 2.25-.06 3.4.25 2.56.67 1.9 1 1.29 1.24.98 1.46.66 1.63.29 1.77-7.83.46-.42-1.44-.89-1.2-1.31-.66-1.45-.17-1.15.12-1.03.5-.54.66-.2.83.17.65.43.51 1.34.64 1.45.34 3.97.96 3.83 1.42 1.92 1.25 1.51 1.73.81 1.91.26 2.07-.16 1.69-.47 1.58-.8 1.49-1.12 1.37-1.32 1.1-1.56.84-2.11.68-2.15.37-2.21.08-3.55-.21-2.64-.56-1.93-.83-1.38-1.04-1.2-1.46-.9-1.62-.6-1.77-.27-1.86Z"/><path fill="#fac896" d="m212.52 364.71.97-1.36 2.36-2.73 1.49-1.26 1.44-.76 3.5-1 .39.01.32.21.17.35-.03.39-.73 1.4-.99 1.14-1.29.92-.78.81-.85 1.64-1.53 4.03-.91 2.06-1 1.64-.83.88-.9.48-1.02.14-1.01-.24-1.31-.78-1.73-1.6-.5-1.02.17-1.06.62-1.04.96-1.03 2.02-1.58 1-.64ZM245.6 388l.06-1.68.47-3.57.55-1.87.79-1.44 2.37-2.76.34-.19.38-.01.34.2.18.34.35 1.71-.05 1.67-.45 1.69-.15 1.14.22 1.81.83 4.08.29 2.13-.03 1.84-.27 1.11-.55.85-.83.64-1.02.33-1.56.04-2.33-.4-.97-.58-.45-.97-.05-1.21.24-1.39.81-2.43.49-1.08Z"/><path fill="#edf2f9" d="m208.38 461.07-.5-.06.29-4.43-.18-3.88-.61-3.4-1.01-3.31-1.22-2.88-1.43-2.48-2.51-3.37-2.45-2.53-2.52-2.08-1.87-1.29-1.95-1.1.2-.45 1.99 1.12 1.91 1.3 2.56 2.13 2.5 2.57 2.56 3.42 1.45 2.53 1.25 2.92 1.03 3.37.62 3.46.19 3.94-.3 4.5Z"/><path fill="#fff" d="m176 411-.33-.18-.05-.29.16-.24.94-.62.29-.06.25.17.06.29-.17.25-.94.62-.21.06ZM165.63 416.52l-.34-.21-.03-.29.19-.23 6.87-3.63.3-.03.23.19.03.3-.19.23-6.87 3.63-.19.04ZM162.09 460.38l-.19-.92-.51-.75-.74-.5-.92-.19-.93.19-.74.5-.5.75-.19.92.19.93.5.74.74.5.93.19.92-.19.74-.5.51-.74.19-.93Zm-4.3 0 .16-.76.41-.6.61-.42.76-.15.75.15.61.42.42.6.15.76-.15.76-.42.61-.61.41-.75.15-.76-.15-.61-.41-.41-.61-.16-.76ZM174.66 466.29l-.92.18-.75.51-.5.74-.19.93.01.12-.01.13.19.92.5.74.75.51.92.19.93-.19.74-.51.5-.74.19-.92-.01-.13.01-.12-.19-.93-.5-.74-.74-.51-.93-.18Zm0 4.29-.72-.14-.6-.39-.41-.56-.19-.72.19-.71.41-.57.6-.38.72-.15.73.15.59.38.42.57.18.71-.18.72-.42.56-.59.39-.73.14ZM174.34 497.29l-.92.19-.75.5-.5.75-.19.92.19.93.5.74.75.5.92.19.93-.19.74-.5.5-.74.19-.93-.19-.92-.5-.75-.74-.5-.93-.19Zm0 4.29-.76-.15-.6-.41-.42-.61-.15-.76.15-.76.42-.61.6-.41.76-.15.76.15.61.41.41.61.16.76-.16.76-.41.61-.61.41-.76.15ZM175.73 483.78l.3-1.12-.19-.93-.5-.74-.75-.5-.92-.19-.7.11-.62.3-.51.46-.36.62-.3 1.12.19.92.5.75.74.5.93.19.7-.11.62-.3.51-.47.36-.61Zm-4-1.12.14-.7.7-.71.97-.27.75.16.61.41.41.61.16.75-.14.71-.7.71-.97.27-.76-.16-.6-.41-.42-.61-.15-.76ZM174.34 510.4l-.92.19-.75.5-.5.74-.19.93.19.92.5.75.75.5.92.19.93-.19.74-.5.5-.75.19-.92-.19-.93-.5-.74-.74-.5-.93-.19Zm0 4.29-.76-.15-.6-.41-.42-.61-.15-.76.15-.76.42-.61.6-.41.76-.15.76.15.61.41.41.61.16.76-.16.76-.41.6-.61.42-.76.15ZM160.85 474.85l-.93.19-.74.5-.5.74-.19.93.19.92.5.75.74.5.93.19.92-.19.75-.5.5-.75.19-.92-.19-.93-.5-.74-.75-.5-.92-.19Zm0 4.29-.76-.15-.61-.42-.41-.6-.15-.76.15-.76.41-.61.61-.41.76-.16.76.16.61.41.41.61.15.76-.15.76-.41.6-.61.42-.76.15ZM173.29 454.43l.12-.01.13.01.92-.19.75-.5.5-.75.19-.92-.19-.92-.5-.75-.75-.5-.92-.19-.13.01-.12-.01-.93.19-.74.5-.5.74-.19.93.19.92.5.75.75.5.92.19Zm.12-4.28.72.19.57.41.38.6.14.72-.14.72-.38.6-.57.41-.72.19-.71-.19-.57-.41-.38-.6-.14-.72.14-.73.38-.59.57-.41.71-.19ZM187.23 508.21l.19.93.5.74.75.5.92.19.3-.03.01-.42-.31.03-.76-.16-.61-.41-.41-.61-.15-.76.15-.75.41-.61.61-.41.76-.16.35.04.01-.43-.36-.04-.93.19-.74.51-.5.74-.19.92ZM189.91 439.83l-.92.19-.75.51-.5.74-.19.92.19.93.5.74.75.51.92.18.93-.18.74-.51.5-.74.19-.93-.19-.92-.5-.74-.74-.51-.93-.19Zm0 4.3-.76-.16-.6-.41-.42-.61-.15-.76.15-.75.42-.61.6-.41.76-.16.76.16.61.41.41.61.15.75-.15.76-.41.61-.61.41-.76.16ZM172.57 524.32l.75-.09 1.02-.3.51.08.75-.14-.6-.27-.66-.1-.97.22-.8.6ZM159.73 493.58l.92-.19.74-.5.51-.74.19-.93-.19-.92-.51-.75-.74-.5-.92-.19-.93.19-.74.5-.5.75-.19.92.19.93.5.74.74.5.93.19Zm0-4.29.75.15.61.41.42.61.15.76-.15.76-.42.61-.61.41-.75.15-.76-.15-.61-.41-.41-.61-.16-.76.16-.76.41-.61.61-.41.76-.15ZM188.91 493.58l.62-.09.57-.24.01-.52-.56.31-.64.11-.76-.15-.6-.41-.42-.61-.15-.76.15-.76.42-.61.6-.41.76-.15.66.12.57.34.01-.53-.59-.26-.65-.1-.92.19-.75.5-.5.75-.19.92.19.93.5.74.75.5.92.19ZM160.85 439.83l-.93.19-.74.51-.5.74-.19.92.19.93.5.74.75.51.92.18.92-.18.75-.51.5-.74.19-.93-.19-.92-.5-.74-.74-.51-.93-.19Zm0 4.3-.76-.16-.61-.41-.41-.61-.15-.76.15-.75.41-.61.61-.41.76-.16.76.16.61.41.41.61.15.75-.15.76-.41.61-.61.41-.76.16ZM192.27 477.21l-.19-.93-.5-.74-.74-.5-.93-.19-.92.19-.75.5-.5.74-.19.93.19.92.5.75.75.5.92.19.93-.19.74-.5.5-.75.19-.92Zm-2.36 1.93-.76-.15-.6-.42-.42-.6-.15-.76.15-.76.42-.61.6-.41.76-.16.76.16.61.41.41.61.15.76-.15.76-.41.6-.61.42-.76.15ZM146.22 466.54l-.92.18-.74.51-.51.74-.19.93.19.92.51.74.74.51.92.19.93-.19.74-.51.51-.74.18-.92-.18-.93-.51-.74-.74-.51-.93-.18Zm0 4.29-.75-.16-.61-.41-.41-.61-.16-.75.16-.76.41-.61.61-.41.75-.16.76.16.61.41.41.61.16.76-.16.75-.41.61-.61.41-.76.16ZM190.9 460.63l-.19-.92-.5-.75-.75-.5-.92-.19-.93.19-.74.5-.5.75-.19.92.19.93.5.74.74.5.93.19.92-.19.75-.5.5-.74.19-.93Zm-4.29 0 .15-.76.41-.6.61-.42.76-.15.76.15.61.42.41.6.15.76-.15.76-.41.61-.61.41-.76.15-.76-.15-.61-.41-.41-.61-.15-.76ZM131.16 493.58l.93-.19.74-.5.51-.74.18-.93-.19-.92-.5-.75-.74-.5-.93-.19-.92.19-.74.5-.51.75-.18.92.18.93.51.74.74.5.92.19Zm0-4.29.76.15.61.41.41.61.16.76-.16.76-.41.61-.61.41-.76.15-.75-.15-.61-.41-.41-.61-.16-.76.16-.76.41-.61.61-.41.75-.15ZM133.52 460.38l-.18-.92-.51-.75-.74-.5-.93-.19-.92.19-.74.5-.51.75-.18.92.18.93.51.74.74.5.92.19.93-.19.74-.5.5-.74.19-.93Zm-4.29 0 .16-.76.41-.6.61-.42.75-.15.76.15.61.42.41.6.16.76-.16.76-.41.61-.61.41-.76.15-.75-.15-.61-.41-.41-.61-.16-.76ZM145.1 485.27l.92-.19.75-.5.5-.75.19-.92-.19-.93-.5-.74-.75-.5-.92-.19-.93.19-.74.5-.5.74-.19.93.19.92.5.75.74.5.93.19Zm0-4.29.76.15.61.41.41.61.15.76-.15.76-.41.61-.61.41-.76.15-.76-.15-.61-.41-.41-.61-.15-.76.15-.76.41-.61.61-.41.76-.15ZM131.97 505.6l-.93.19-.74.5-.5.74-.19.93.19.92.5.75.74.5.93.19.92-.19.74-.5.51-.75.19-.92-.19-.93-.5-.74-.75-.5-.92-.19Zm0 4.29-.76-.15-.61-.41-.41-.61-.16-.76.16-.76.41-.61.61-.41.76-.15.75.15.61.41.42.61.15.76-.15.74-.41.63-.63.42-.74.15v-.01ZM146.22 431.52l-.92.19-.74.5-.51.75-.19.92.19.93.51.74.74.5.92.19.93-.19.74-.5.51-.74.18-.93-.18-.92-.51-.75-.74-.5-.93-.19Zm0 4.29-.75-.15-.61-.41-.41-.61-.16-.76.16-.76.41-.6.61-.42.75-.15.76.15.61.42.41.6.16.76-.16.76-.41.61-.61.41-.76.15ZM147.46 452.07l-.19-.92-.5-.75-.74-.5-.93-.19-.92.19-.75.5-.5.74-.19.93.19.92.5.75.75.5.92.19.93-.19.74-.5.5-.75.19-.92Zm-4.29 0 .15-.76.42-.61.6-.41.76-.15.76.15.61.41.41.61.15.76-.15.76-.41.61-.61.41-.76.15-.76-.16-.6-.41-.42-.6-.15-.76ZM145.91 510.4l-.93.19-.74.5-.51.74-.19.93.19.92.51.75.74.5.93.19.92-.19.74-.5.51-.75.18-.92-.18-.93-.51-.74-.74-.5-.92-.19Zm0 4.29-.76-.15-.61-.41-.41-.61-.16-.76.16-.76.41-.61.61-.41.76-.15.75.15.61.41.41.61.16.76-.16.76-.41.6-.61.42-.75.15ZM145.1 419.42l.87-.18.72-.45.51-.68.24-.86-.41-.16-.17.75-.41.6-.6.4-.75.15-.77-.16-.59-.4-.43-.66-.34.29.37.56.5.43.59.27.67.1ZM145.91 497.29l-.93.19-.74.5-.51.75-.19.92.19.93.51.74.74.5.93.19.92-.19.74-.5.51-.74.18-.93-.18-.92-.51-.75-.74-.5-.92-.19Zm0 4.29-.76-.15-.61-.41-.41-.61-.16-.76.16-.76.41-.61.61-.41.76-.15.75.15.61.41.41.61.16.76-.16.76-.41.61-.61.41-.75.15ZM160.53 505.6l-.93.19-.74.5-.5.74-.19.93.19.92.5.75.75.5.92.19.92-.19.75-.5.5-.75.19-.92-.19-.93-.5-.74-.74-.5-.93-.19Zm0 4.29-.76-.15-.61-.41-.41-.61-.15-.76.15-.76.41-.61.61-.41.76-.15.76.15.61.41.41.61.15.76-.14.74-.42.63-.63.42-.74.15v-.01ZM201.5 468.86l.54-.61.38-.63.58-.45.54-.6-.81.26-.64.51-.42.69-.17.83ZM202.48 454.68l.92-.19.74-.5.51-.75.19-.92-.19-.92-.51-.75-.74-.5-.92-.19-.93.19-.74.5-.5.74-.19.93.19.92.5.75.74.5.93.19Zm0-4.29.75.15.61.41.42.61.15.76-.16.76-.41.61-.61.41-.75.15-.76-.15-.61-.41-.41-.61-.16-.76.16-.76.41-.61.61-.41.76-.15ZM132.29 474.85l-.93.19-.74.5-.5.74-.19.93.19.92.5.75.74.5.93.19.92-.19.74-.5.51-.75.19-.92-.19-.93-.51-.74-.74-.5-.92-.19Zm0 4.29-.76-.15-.61-.42-.41-.6-.16-.76.16-.76.41-.61.61-.41.76-.16.75.16.61.41.42.61.15.76-.15.76-.42.6-.61.42-.75.15ZM201.49 433.88l.19.93.5.74.75.5.92.19.92-.19.75-.5.5-.74.19-.93-.19-.92-.5-.75-.75-.5-.92-.19-.93.19-.74.5-.5.75-.19.92Zm4.29 0-.15.76-.41.61-.61.41-.76.15-.76-.15-.61-.41-.41-.61-.15-.76.15-.76.41-.6.61-.42.76-.15.76.15.61.42.41.6.15.76ZM119.08 512.51l-.19-.93-.5-.74-.75-.5-.92-.19-.86.16-.68.42-.54.68.45.21.68-.58.87-.22.76.16.61.41.41.61.16.76-.04.37-.03.05.4.18.04-.15.13-.7ZM134.65 442.2l-.32-1.17-.85-.85-.17.38.67.7.24.94-.16.76-.41.61-.61.41-.75.15-.56-.09-.17.39.73.13.92-.19.74-.5.51-.75.19-.92ZM115.84 480.98l.76.15.61.41.41.61.15.76-.03.37-.28.54-.42.41-.53.26-.6.1-.65-.11-.55-.31-.42-.48-.26-.61-.35.77.37.59.5.44.61.29.68.1.81-.15.69-.39.52-.6.3-.77.11-.7-.19-.92-.5-.75-.74-.5-.93-.19-.66.1-.4.87.99-.29ZM116.72 497.04l-.81.15-.69.39-.52.59-.3.77-.12.71.19.92.51.75.74.5.92.19.81-.15.69-.39.52-.6.3-.76.12-.71-.19-.92-.5-.75-.75-.5-.92-.19Zm1.82 2.98-.28.54-.42.41-.52.27-.6.09-.76-.15-.61-.41-.41-.61-.16-.76.04-.37.28-.54.42-.41.53-.26.59-.1.76.15.61.41.41.61.16.76-.04.37ZM160.53 518.71l-.92.19-.75.5-.5.74-.19.93.19.92.5.75.75.5.92.19.92-.19.75-.5.5-.75.19-.92-.19-.93-.5-.74-.75-.5-.92-.19Zm0 4.29-.76-.15-.61-.41-.41-.61-.15-.76.15-.76.41-.61.61-.41.76-.15.76.15.61.41.41.61.15.76-.15.76-.41.6-.61.42-.76.15Z"/><path fill="#fac896" d="m151.25 437.63 1.3-1.54.91-1.77.51-1.92.08-2.01.14-.85.47-.71.84-.61 1.58-.63 2.11-.44 4.45-.32 3.76.06 1.57.1 2.19 2.35-1.75 11.61-.42.81-.57.72-1.04.9-1.33.71-2.02.54-2.32.14-3.3-.42-2.54-1.04-1.86-1.15-1.5-1.33-.88-1.18-.45-1.2.07-.82Z"/><path fill="#f39c55" d="m169.44 439.58-.03.2-.42.8-.57.73-1.04.89-1.33.72-2.02.54-2.32.14-3.3-.42-2.98-1.28-2.02-1.39-1.49-1.62-.64-1.29-.03.03-.07.82.45 1.19.88 1.18 1.5 1.34 1.86 1.15 2.54 1.04 3.3.41 2.32-.13 2.02-.55 1.33-.71 1.04-.89.57-.73.42-.8.21-1.4-.18.03Z"/><path fill="#f39c55" d="m156.31 430.73 13.23 9.38 1.41-9.38Z"/><path fill="#fac896" d="m151.88 425.58 1.31 1.18 3.56 2.67 2.38 1.46 2.87 1.39 3.06 1.07 3.33.63 2.27.09 2.32-.25 2.41-.61 1.77-.95 1.4-1.41 1.08-1.94.69-2.18.39-2.51.06-2.88-.48-4.35-1.14-4.52-1.11-2.94-1.35-2.73-1.59-2.54-1.87-2.31-2.03-1.84-2.22-1.44-2.41-.94-2.58-.34-2.84.28-4.18 1.24-3.21 1.48-2.41 1.68-2.02 2.1-1.38 2.24-.82 2.42-.32 2.56.15 2.7.63 2.89 1.03 2.8 1.41 2.87 1.84 2.93Z"/><path fill="#55312f" d="m141.34 401.37.82-.65.75-.95.53-1.11.71-2.44.8-2.37 1.02-1.78 1.27-1.57 1.53-1.38 1.77-1.04 1.87-.67 1.98-.31 3.04.1 3.04.69 2.89 1.18 2.56 1.51 2.09 1.63 1.43.92.82.19 1.33.05 2.77-.13 1.24.09 1.12.35.97.68.97 1.28.61 1.65.11 1.94-.35 1.99-.79 2.01-1.18 1.84-1.54 1.57-3.2 2.82-1.32 1.57-1.01 1.78-.6 2.01-.15 2.56h-2.53l-.76-.83-1.69-1.4-.96-.39-.79.09-.6.52-.29.77.07 1.14.43 1.1 1.04 1.37 1.89 1.73 1.1 1.06.54.85.27.86.03.59-.11.57-.51.91-.66.88-1.21 1.21-1.52 1.12-2.24 1.16-1.81.84-1.9.53-1.96.2-1.98-.13-2.23-.44-1.97-.72-1.76-1-2.43-1.93-2.35-2.46-.94-1.29-.46-1.04-.38-2.07-.49-2.27-.59-1.26-1.16-1.66-1.42-1.38-.87-1.69-.31-1.89.33-1.95.71-2.21 1.09-2.03 1.45-1.78 1.77-1.51.26-.18Z"/><path fill="#231f20" d="m166.93 405.23-.92-.15.09-.23 1.16.1 1.09-.42.58-.54.4-.67-.85-.08-.73-.44-.33-.5-.04-.6.18-.48.38-.34.56-.01.47.28.56.67.19.85-.03.32 1.23-.62.57-.57.3-.71.02-.77-.29-.76.21-.13.32.85-.03.86-.33.8-.64.64-1.43.68-.44.83-.68.65-.75.37-.82.12Zm1.28-4.15-.17.03-.28.26-.12.36.02.47.25.4.7.42.81.04.06-.4-.17-.74-.49-.58-.61-.26ZM151.95 422.33l-.98-.17-.9-.4-1.84-1.2-1.19-.2-1.11-.45-1.34-.93-.98-1.3.23-.1.93 1.23 1.27.88.92.38.98.22-.53-.72-.2-.86.07-.31.22-.23.74-.18.74.19.53.46.21.67-.09.57-.37.44-.64.22 1.58.99 1.11.46.73.08.64-.13.38-.21.33-.35.21.12-.72.63-.93.2Zm-3.76-4.08-.55.14-.18.31.24.91.62.71.8-.2.29-.34.06-.45-.17-.54-.43-.38-.67-.16h-.01Z"/><path fill="#f97700" d="m176.5 424.46-1.1-.12-.97-.38-.88-.66-.07-.18.08-.17.18-.07.17.08.89.64.92.29 1.71-.02.76-.18.2.01.12.14-.01.2-.14.12-1.86.3ZM170.95 418.7l-.29.71-.71.29-.71-.29-.29-.71.29-.7.71-.3.71.3.29.7Z"/><path fill="#f97700" d="m171.94 419.26-.29.7-.71.3-.7-.3-.3-.7.3-.71.7-.29.71.29.29.71Z"/><path fill="#f97700" d="m172.35 418.1-.29.7-.71.3-.71-.3-.29-.7.29-.71.71-.29.71.29.29.71Z"/><path fill="#f97700" d="m173.53 418.5-.29.71-.71.29-.71-.29-.29-.71.29-.71.71-.29.71.29.29.71Z"/><path fill="#fff" d="m176.66 419.65-1.03-.25-.87-.61-1.19-1.4-.83-1.65-.55-2.05-.03-1.69.26-1.02.45-.69.62-.43.75-.11.8.2.89.57 1.13 1.25.99 1.88.51 1.77.09 1.84-.08.7-.27.63-.42.54-.58.41-.64.11Zm-2.54-9.13-.34.07-.55.51-.32 1.14.05 1.39.5 1.83.75 1.48 1.06 1.27.79.53.95.07.54-.5.33-1.13-.09-1.65-.46-1.59-.77-1.51-.8-1.02-.91-.69-.73-.2Z"/><path fill="#231f20" d="m175.75 413.69-.3.71-.71.3-.72-.3-.29-.71.29-.72.72-.29.71.29.3.72ZM171.35 412.04h-.02l-.23-.27.44-1.47.98-1.18.96-.4.97-.09 1.01.22.15.11.02.19-.31.17-1.28-.18-1.24.38-.82 1.03-.38 1.26-.25.23Z"/></svg>